<svg width="70" height="70" viewBox="0 0 70 70" fill="none" xmlns="http://www.w3.org/2000/svg">
<path d="M33.5415 5.83337H27.7081C26.9031 5.83337 26.2498 6.48675 26.2498 7.29175C26.2498 8.09675 26.9033 8.75 27.7083 8.75H33.5417C34.3465 8.75 34.9999 8.09662 34.9999 7.29162C34.9999 6.48662 34.3465 5.83337 33.5415 5.83337Z" fill="#FF6B2F"/>
<path d="M59.7916 37.9166C58.9866 37.9166 58.3332 38.57 58.3332 39.375V36.4584C58.3332 34.1687 57.5486 32.0775 56.2711 30.3743L57.9045 28.7409C58.4732 28.1721 58.4732 27.2475 57.9045 26.6788C57.3357 26.11 56.4111 26.11 55.8424 26.6788L54.209 28.3121C52.5059 27.0346 50.4146 26.25 48.125 26.25C45.8354 26.25 43.7412 27.0346 42.0379 28.3121L40.4045 26.6788C39.8357 26.11 38.9111 26.11 38.3424 26.6788C37.7736 27.2475 37.7736 28.1721 38.3424 28.7409L39.9757 30.3743C38.7011 32.0776 37.9166 34.1718 37.9166 36.4584V39.375C37.9166 38.57 37.2632 37.9166 36.4582 37.9166C35.6532 37.9166 35 38.57 35 39.375V51.0416C35 51.8466 35.6534 52.5 36.4584 52.5C37.2634 52.5 37.9168 51.8466 37.9168 51.0416C37.9168 52.9404 39.1389 54.5445 40.8334 55.1482V59.7916C40.8334 60.5966 41.4868 61.25 42.2918 61.25C43.0968 61.25 43.75 60.5966 43.75 59.7916V55.4166H52.5V59.7916C52.5 60.5966 53.1534 61.25 53.9584 61.25C54.7634 61.25 55.4168 60.5966 55.4168 59.7916V55.1482C57.1114 54.5445 58.3334 52.9404 58.3334 51.0416C58.3334 51.8466 58.9868 52.5 59.7918 52.5C60.5968 52.5 61.2501 51.8466 61.2501 51.0416V39.375C61.25 38.57 60.5966 37.9166 59.7916 37.9166ZM48.125 29.1666C51.6484 29.1666 54.5912 31.6779 55.2679 35H40.9791C41.6588 31.6779 44.6016 29.1666 48.125 29.1666ZM55.4166 51.0416C55.4166 51.8466 54.7604 52.5 53.9582 52.5H42.2916C41.4895 52.5 40.8332 51.8466 40.8332 51.0416V37.9166H55.4166V51.0416Z" fill="#FF6B2F"/>
<path d="M50.6071 64.0471C50.0093 63.5105 49.0875 63.5659 48.548 64.1696C45.958 67.0834 38.8093 67.0834 36.4584 67.0834H24.7918C15.8376 67.0834 11.6668 65.2284 11.6668 61.25H36.4584C37.2634 61.25 37.9168 60.5966 37.9168 59.7916C37.9168 58.9866 37.2634 58.3332 36.4584 58.3332H11.6666V14.5832H49.5832V22.1929C49.5832 22.9979 50.2366 23.6513 51.0416 23.6513C51.8466 23.6513 52.5 22.9979 52.5 22.1929V10.2084C52.5 3.15588 44.4412 0 36.4584 0H24.7918C16.8088 0 8.75 3.15588 8.75 10.2084V61.25C8.75 70 20.825 70 24.7916 70H36.4582C41.0986 70 47.6232 69.5975 50.7295 66.1062C51.2662 65.5054 51.2109 64.5838 50.6071 64.0471ZM11.6666 10.2084C11.6666 4.45088 19.9179 2.91676 24.7916 2.91676H36.4582C41.332 2.91676 49.5832 4.45088 49.5832 10.2084V11.6668H11.6666V10.2084Z" fill="#FF6B2F"/>
</svg>
