<svg width="510" height="558" viewBox="0 0 510 558" fill="none" xmlns="http://www.w3.org/2000/svg">
<g id="hero">
<g clip-path="url(#clip0)">
<g id="phone">
<path id="Vector" d="M411.773 39.7728V466.816C411.768 471.903 409.745 476.78 406.15 480.376C402.554 483.971 397.679 485.992 392.595 485.994H219.352C216.833 485.998 214.339 485.505 212.011 484.543C209.683 483.581 207.568 482.169 205.786 480.387C204.005 478.606 202.592 476.49 201.629 474.161C200.666 471.832 200.172 469.336 200.174 466.816V39.7728C200.174 37.2525 200.67 34.7569 201.634 32.4284C202.597 30.0999 204.01 27.9842 205.791 26.2021C207.572 24.42 209.686 23.0064 212.013 22.042C214.34 21.0776 216.833 20.5814 219.352 20.5816H245.278V23.9086C245.277 28.0994 246.94 32.1187 249.9 35.0826C252.861 38.0466 256.877 39.7123 261.065 39.7135H349.177C352.548 39.7207 355.831 38.6394 358.539 36.6303C359.087 36.2319 359.606 35.796 360.093 35.3258C361.635 33.8521 362.862 32.0802 363.7 30.1176C364.537 28.155 364.967 26.0426 364.965 23.9086V20.5816H392.595C395.114 20.5808 397.608 21.0767 399.935 22.0409C402.262 23.0051 404.377 24.4186 406.158 26.2009C407.939 27.9831 409.351 30.099 410.315 32.4278C411.278 34.7565 411.774 37.2524 411.773 39.7728Z" fill="#F2F2F2"/>
<path id="Vector_2" d="M405.191 511.239H204.679C200.163 511.253 195.737 509.978 191.921 507.563C188.861 505.656 186.332 503.007 184.567 499.861C182.802 496.716 181.858 493.176 181.824 489.568V21.6855C181.824 9.72811 192.077 1.25659e-05 204.679 1.25659e-05H251.802V4.30384C251.802 13.489 259.703 20.9617 269.416 20.9617H335.847C339.585 20.9825 343.238 19.8441 346.304 17.703C348.477 16.2016 350.261 14.2023 351.505 11.8716C352.75 9.54087 353.421 6.94626 353.461 4.30384V0H405.191C417.793 0 428.045 9.72811 428.045 21.6855V489.568C428.027 492.747 427.294 495.88 425.901 498.737C424.508 501.593 422.49 504.099 419.998 506.069C415.797 509.434 410.572 511.259 405.191 511.239ZM204.679 1.31763C192.803 1.31763 183.141 10.4548 183.141 21.6855V489.568C183.176 492.954 184.063 496.277 185.722 499.228C187.38 502.179 189.756 504.664 192.629 506.452C196.234 508.732 200.414 509.935 204.679 509.921H405.191C410.27 509.942 415.204 508.221 419.17 505.045C421.509 503.198 423.403 500.848 424.712 498.169C426.02 495.49 426.71 492.55 426.729 489.568V21.6855C426.729 10.4548 417.067 1.31764 405.191 1.31764H354.777V4.30384C354.737 7.15915 354.015 9.96346 352.672 12.4827C351.328 15.002 349.402 17.1632 347.054 18.7858C343.768 21.0806 339.854 22.301 335.847 22.2793H269.416C258.977 22.2793 250.485 14.2156 250.485 4.30384V1.31763H204.679Z" fill="#3F3D56"/>
</g>
<g id="navcontent">
<path id="Vector_3" d="M342.873 118.19H266.856V119.676H342.873V118.19Z" fill="#3F3D56"/>
<path id="Vector_4" d="M342.873 138.411H266.856V139.897H342.873V138.411Z" fill="#3F3D56"/>
<path id="Vector_5" d="M342.873 158.632H266.856V160.118H342.873V158.632Z" fill="#3F3D56"/>
</g>
<g id="Group 28">
<path id="Vector_6" d="M47.1128 510.097L46.4063 509.832C46.251 509.774 30.7979 503.849 23.559 490.415C16.3198 476.98 19.8645 460.804 19.9011 460.643L20.068 459.906L20.7742 460.171C20.9295 460.23 36.3823 466.154 43.6215 479.589C50.8607 493.024 47.316 509.199 47.2794 509.361L47.1128 510.097ZM24.7182 489.789C30.8384 501.148 43.05 506.971 46.144 508.3C46.7323 504.981 48.5771 491.562 42.4623 480.214C36.3482 468.867 24.1319 463.036 21.0366 461.704C20.4479 465.024 18.6037 478.442 24.7182 489.789Z" fill="#3F3D56"/>
<path id="Vector_7" d="M29.0912 485.702C42.1004 493.534 47.1107 509.092 47.1107 509.092C47.1107 509.092 31.0288 511.95 18.0196 504.118C5.0103 496.285 0 480.728 0 480.728C0 480.728 16.0819 477.87 29.0912 485.702Z" fill="#F9A826"/>
</g>
<g id="man">
<path id="Vector_8" d="M465.944 508.761L467.15 528.668L473.781 535.907L487.646 525.652L478.603 505.142L465.944 508.761Z" fill="#EEA892"/>
<path id="Vector_9" d="M482.22 527.462C482.22 527.462 482.488 523.441 482.957 515.799C482.957 515.799 503.318 511.777 502.113 525.652C500.907 539.526 490.659 544.352 490.659 544.352C490.659 544.352 485.837 543.749 486.439 548.575C487.042 553.401 468.958 563.656 460.519 554.004L465.708 523.541C465.708 523.541 471.369 527.462 473.178 525.652C474.986 523.842 482.22 527.462 482.22 527.462Z" fill="#2F2E41"/>
<path id="Vector_10" d="M448.151 132.642L465.029 168.233L434.683 176.52L428.86 144.103L448.151 132.642Z" fill="#EEA892"/>
<path id="Vector_11" d="M430.669 152.548C443.653 152.548 454.178 142.015 454.178 129.022C454.178 116.029 443.653 105.496 430.669 105.496C417.685 105.496 407.159 116.029 407.159 129.022C407.159 142.015 417.685 152.548 430.669 152.548Z" fill="#EEA892"/>
<path id="Vector_12" d="M446.059 139.116C443.925 138.989 441.84 139.711 439.72 139.992C432.136 141 424.245 135.493 422.571 128.022C422.436 127.027 422.14 126.061 421.694 125.162C420.526 123.255 417.868 122.891 415.676 123.329C413.485 123.768 411.407 124.794 409.176 124.912C405.73 125.093 402.421 122.97 400.585 120.046C398.748 117.123 398.228 113.525 398.476 110.081L400.128 111.816C400.8 110.395 401.059 108.814 400.876 107.252C401.752 107.019 402.672 107.015 403.55 107.239C404.428 107.464 405.233 107.911 405.889 108.536C407.345 108.691 406.246 105.832 407.328 104.844C407.781 104.43 408.476 104.508 409.09 104.514C412.188 104.544 414.695 102.172 417.137 100.263C421.368 96.962 426.316 94.7036 431.581 93.6701C435.08 92.9871 438.801 92.8774 442.119 94.1813C444.845 95.2522 447.126 97.2026 449.236 99.2334C454.432 104.233 459.032 110.107 461.194 116.988C462.951 122.624 463.001 128.654 461.337 134.318C460.466 137.26 457.841 147.334 453.999 147.569C449.17 147.864 452.069 139.475 446.059 139.116Z" fill="#2F2E41"/>
<path id="Vector_13" d="M416.503 508.761L415.297 528.668L408.667 535.907L394.802 525.652L403.844 505.142L416.503 508.761Z" fill="#EEA892"/>
<path id="Vector_14" d="M424.038 164.613C424.038 164.613 427.052 142.293 455.987 149.532C484.922 156.771 487.936 163.407 487.936 163.407C487.936 163.407 488.539 169.439 490.347 170.042C492.156 170.646 496.978 173.662 494.567 175.471C492.156 177.281 505.418 195.378 505.418 195.378C505.418 195.378 513.254 200.204 508.432 223.127C503.609 246.05 498.184 279.229 498.184 279.229C498.184 279.229 499.992 290.087 497.581 296.119C495.17 302.152 499.992 306.374 499.992 308.787C499.992 311.2 498.787 323.265 498.787 323.265C498.787 323.265 416.804 320.249 405.351 323.265C393.898 326.281 424.038 164.613 424.038 164.613Z" fill="#5987FF"/>
<path id="Vector_15" d="M496.074 318.138C496.074 318.138 500.896 329.599 496.074 348.3C491.251 367 490.046 414.053 490.046 414.053C490.046 414.053 490.046 505.142 485.826 509.968C481.607 514.794 482.812 522.636 482.812 522.636H464.728C464.728 522.636 465.331 512.984 462.919 507.555C460.508 502.126 461.111 443.611 461.111 443.611L450.863 361.571L430.368 439.389C430.368 439.389 422.531 497.3 419.517 499.713C416.503 502.126 419.517 511.777 419.517 511.777C413.322 512.706 406.992 511.651 401.433 508.761V499.109C401.433 499.109 392.391 495.49 395.405 482.219C398.419 468.947 397.213 324.773 406.255 318.138C415.297 311.502 496.074 318.138 496.074 318.138Z" fill="#2F2E41"/>
<path id="Vector_16" d="M400.227 527.462C400.227 527.462 399.959 523.441 399.49 515.799C399.49 515.799 379.129 511.777 380.334 525.652C381.54 539.526 391.788 544.352 391.788 544.352C391.788 544.352 396.61 543.749 396.007 548.575C395.405 553.401 413.489 563.656 421.928 554.004L416.739 523.541C416.739 523.541 411.078 527.462 409.269 525.652C407.461 523.842 400.227 527.462 400.227 527.462Z" fill="#2F2E41"/>
<path id="Vector_17" d="M392.089 320.249L390.281 328.694C390.281 328.694 368.58 363.079 386.664 366.698C404.748 370.318 403.543 333.52 403.543 333.52L405.351 325.678L392.089 320.249Z" fill="#EEA892"/>
<path id="Vector_18" d="M413.489 169.741C413.489 169.741 426.148 161.295 432.176 171.55C438.204 181.805 444.232 205.332 444.232 205.332L436.395 262.64L407.461 328.996L389.979 322.36C389.979 322.36 392.993 313.915 391.787 310.295C390.582 306.676 396.61 297.627 396.61 297.627L402.638 250.575C402.638 250.575 405.049 170.344 413.489 169.741Z" fill="#5987FF"/>
<path id="Vector_19" opacity="0.1" d="M436.094 261.131L416.202 332.917L407.159 329.297L436.094 261.131Z" fill="black"/>
<path id="Vector_20" opacity="0.1" d="M482.831 186.146C487.735 186.167 492.623 185.578 497.381 184.392L497.086 183.222C485.827 186.073 473.096 185.372 459.248 181.135C446.926 177.365 435.286 171.327 424.029 165.489L423.475 166.56C434.779 172.423 446.469 178.487 458.896 182.289C466.639 184.753 474.706 186.053 482.831 186.146V186.146Z" fill="black"/>
</g>
<g id="square">
<path id="Vector_21" d="M368.117 350.348H252.329V225.594H368.117V350.348ZM253.814 348.863H366.632V227.079H253.814V348.863Z" fill="#3F3D56"/>
<path id="Vector_22" d="M310.871 325.075C331.596 325.075 348.397 308.262 348.397 287.523C348.397 266.783 331.596 249.97 310.871 249.97C290.146 249.97 273.345 266.783 273.345 287.523C273.345 308.262 290.146 325.075 310.871 325.075Z" fill="#F9A826"/>
<path id="Vector_23" d="M329.305 287.821H310.573V269.076H309.853V287.821H291.121V288.542H309.853V307.287H310.573V288.542H329.305V287.821Z" fill="#2F2E41"/>
</g>
<g id="navigate">
<path id="Vector_24" d="M290.462 330.346H175.91V453.544H290.462V330.346Z" fill="#F9A826"/>
<path id="Vector_25" d="M271.114 367.222H195.097V368.707H271.114V367.222Z" fill="#F2F2F2"/>
<path id="Vector_26" d="M271.114 387.443H195.097V388.928H271.114V387.443Z" fill="#F2F2F2"/>
<path id="Vector_27" d="M271.114 407.664H195.097V409.149H271.114V407.664Z" fill="#F2F2F2"/>
</g>
<g id="girl">
<path id="Vector_28" d="M155.051 132.41C147.333 114.186 127.686 110.744 127.686 110.744C127.686 110.744 108.769 105.693 92.9702 129.745C78.2448 152.164 59.2555 173.168 83.3378 182.116L89.6991 168.747L90.4622 184.133C93.9641 184.862 97.5033 185.4 101.064 185.743C127.776 188.458 152.956 192.974 153.422 183.313C154.042 170.471 162.478 149.945 155.051 132.41Z" fill="#2F2E41"/>
<path id="Vector_29" d="M73.5559 278.351L71.8371 322.213C71.8371 322.213 53.7894 357.474 68.3994 356.614C83.0095 355.754 81.2906 322.213 81.2906 322.213L86.4471 280.931L73.5559 278.351Z" fill="#FFB8B8"/>
<path id="Vector_30" d="M172.388 270.611L177.545 314.472C177.545 314.472 193.014 337.693 180.983 345.433C168.951 353.174 168.951 317.913 168.951 317.913L156.06 273.191L172.388 270.611Z" fill="#FFB8B8"/>
<path id="Vector_31" d="M154.341 352.313L138.872 412.515C138.872 412.515 131.996 436.596 122.543 448.636L119.105 455.516L105.354 453.796L114.808 415.095L120.824 343.713L154.341 352.313Z" fill="#FFB8B8"/>
<path id="Vector_32" opacity="0.1" d="M154.341 352.313L138.872 412.515C138.872 412.515 131.996 436.596 122.543 448.636L119.105 455.516L105.354 453.796L114.808 415.095L120.824 343.713L154.341 352.313Z" fill="black"/>
<path id="Vector_33" d="M101.953 444.195L125.456 449.641L115.769 472.491C115.769 472.491 119.706 486.171 115.956 493.416C112.206 500.66 112.747 513.805 112.747 513.805L107.653 513.002C107.653 513.002 95.2861 536.301 80.6735 529.645C66.061 522.989 81.6032 507.155 81.6032 507.155C81.6032 507.155 94.2377 482.157 95.8422 471.962C97.4467 461.768 101.953 444.195 101.953 444.195Z" fill="#2F2E41"/>
<path id="Vector_34" opacity="0.1" d="M101.953 444.195L125.456 449.641L115.769 472.491C115.769 472.491 119.706 486.171 115.956 493.416C112.206 500.66 112.747 513.805 112.747 513.805L107.653 513.002C107.653 513.002 95.2861 536.301 80.6735 529.645C66.061 522.989 81.6032 507.155 81.6032 507.155C81.6032 507.155 94.2377 482.157 95.8422 471.962C97.4467 461.768 101.953 444.195 101.953 444.195Z" fill="black"/>
<path id="Vector_35" d="M82.1504 339.413L95.0416 403.915C95.0416 403.915 90.7445 435.736 95.901 455.516L101.057 474.437H118.246V404.775C118.246 404.775 119.105 348.013 116.527 343.713C113.949 339.413 82.1504 339.413 82.1504 339.413Z" fill="#FFB8B8"/>
<path id="Vector_36" d="M121.683 467.557L97.6196 469.277L103.636 493.358C103.636 493.358 97.6196 506.258 100.198 513.998C102.776 521.738 100.198 534.639 100.198 534.639H105.354C105.354 534.639 113.948 559.58 129.418 555.28C144.887 550.979 131.996 532.919 131.996 532.919C131.996 532.919 123.402 506.258 123.402 495.938C123.402 485.617 121.683 467.557 121.683 467.557Z" fill="#2F2E41"/>
<path id="Vector_37" d="M127.699 169.988C140.515 169.988 150.903 159.592 150.903 146.768C150.903 133.943 140.515 123.547 127.699 123.547C114.884 123.547 104.495 133.943 104.495 146.768C104.495 159.592 114.884 169.988 127.699 169.988Z" fill="#FFB8B8"/>
<path id="Vector_38" d="M111.8 155.798C111.8 155.798 113.519 185.039 108.362 186.759C103.206 188.479 135.004 186.759 135.004 186.759C135.004 186.759 130.707 168.698 135.004 163.538C139.301 158.378 111.8 155.798 111.8 155.798Z" fill="#FFB8B8"/>
<path id="Vector_39" d="M135.434 182.029C135.434 182.029 113.089 180.309 108.792 182.029C104.495 183.749 92.4634 192.349 92.4634 192.349L98.4793 246.531L147.466 256.851L155.201 245.67L162.935 229.33L159.498 208.689L158.638 196.649L135.434 182.029Z" fill="#D0CDE1"/>
<path id="Vector_40" d="M88.1663 195.789C88.1663 195.789 76.9939 198.369 76.1345 206.969C75.275 215.57 75.2751 237.07 76.1345 240.51C76.9939 243.95 76.1345 245.67 75.275 246.53C74.4156 247.39 72.6968 245.67 74.4156 248.251C76.1345 250.831 76.1345 250.831 75.275 253.411C74.4156 255.991 71.8374 252.551 73.5562 256.851C75.2751 261.151 76.1345 262.011 75.275 262.871C74.4156 263.731 71.8374 283.512 71.8374 283.512L86.4474 286.092L101.057 235.35L88.1663 195.789Z" fill="#D0CDE1"/>
<path id="Vector_41" d="M155.2 195.789C156.833 195.88 158.411 196.407 159.771 197.314C161.131 198.221 162.223 199.477 162.935 200.949C165.513 206.109 172.389 239.65 171.529 242.23C170.67 244.81 168.951 241.37 170.67 246.53C172.389 251.691 170.67 250.831 171.529 254.271C172.389 257.711 168.092 254.271 171.529 257.711C174.967 261.151 176.686 262.011 174.967 263.731C173.248 265.451 170.67 262.011 173.248 265.451C175.826 268.891 175.826 274.051 175.826 274.051L155.2 278.351L149.185 230.19L155.2 195.789Z" fill="#D0CDE1"/>
<path id="Vector_42" d="M85.4756 194.421L89.6976 192.309C90.1245 192.095 90.5894 191.969 91.0656 191.936C91.5417 191.903 92.0197 191.965 92.4718 192.118C92.9239 192.271 93.3413 192.512 93.6997 192.827C94.0582 193.143 94.3508 193.526 94.5604 193.955L113.948 233.63L135.434 247.39L150.903 240.51C150.903 240.51 162.076 223.31 158.638 214.71C156.307 208.878 153.577 199.907 152.06 194.734C151.971 194.429 151.978 194.105 152.08 193.805C152.182 193.504 152.373 193.242 152.629 193.055C152.885 192.867 153.192 192.763 153.509 192.756C153.826 192.75 154.137 192.841 154.401 193.017L157.33 194.972C158.267 195.597 158.921 196.567 159.149 197.671L165.513 228.47L156.919 246.53V263.731L162.935 356.614C162.935 356.614 140.59 353.173 118.245 348.873C95.9006 344.573 67.54 341.133 67.54 341.133C67.54 341.133 82.15 265.451 94.1818 252.551C94.1818 252.551 94.1818 243.09 95.9006 242.23C97.6195 241.37 99.3383 235.35 99.3383 235.35L83.7712 199.084C83.4072 198.236 83.381 197.28 83.6978 196.414C84.0147 195.547 84.6507 194.834 85.4756 194.421Z" fill="#2F2E41"/>
<path id="Vector_43" d="M150.687 125.789L130.998 115.468L103.807 119.69L98.1812 144.554L112.185 144.015L116.097 134.88V143.865L122.559 143.616L126.31 129.073L128.653 144.554L151.626 144.085L150.687 125.789Z" fill="#2F2E41"/>
<path id="Vector_44" d="M104.065 151.283C105.489 151.283 106.643 149.261 106.643 146.768C106.643 144.274 105.489 142.252 104.065 142.252C102.641 142.252 101.487 144.274 101.487 146.768C101.487 149.261 102.641 151.283 104.065 151.283Z" fill="#FFB8B8"/>
</g>
</g>
</g>
<defs>
<clipPath id="clip0">
<rect width="510" height="558" fill="white"/>
</clipPath>
</defs>
</svg>
