<svg width="489" height="314" viewBox="0 0 489 314" fill="none" xmlns="http://www.w3.org/2000/svg">
<g clip-path="url(#clip0)">
<path opacity="0.5" d="M459.439 268.755C458.556 265.102 455.653 262.349 453.516 259.256C450.947 255.443 449.446 251.01 449.169 246.418C448.892 241.827 449.848 237.245 451.939 233.15C453.994 229.233 457.215 225.183 456.049 220.907C455.268 218.03 452.673 216.059 450.125 214.516C440.445 208.676 429.272 205.798 417.98 206.235C404.14 206.801 390.346 212.339 376.773 209.596C363.555 206.915 352.355 200.276 338.525 199.489C328.194 198.902 317.975 199.561 307.623 198.429C282.046 195.649 256.279 195.033 230.598 196.586C204.919 195.033 179.154 195.65 153.578 198.429C143.252 199.561 133.028 198.902 122.676 199.489C108.805 200.271 97.6315 206.92 84.4078 209.596C70.8296 212.344 57.0407 206.801 43.2005 206.235C31.9089 205.798 20.7359 208.676 11.0557 214.516C8.48701 216.059 5.9183 218.03 5.13228 220.907C3.97122 225.178 7.18724 229.228 9.24221 233.15C11.3344 237.244 12.2925 241.826 12.0169 246.417C11.7414 251.008 10.2421 255.442 7.6753 259.256C5.53813 262.343 2.63549 265.102 1.75186 268.755C-0.0256915 276.104 7.10504 282.578 14.0817 285.496C33.1158 293.467 56.265 289.613 73.6757 300.713C81.4794 305.694 88.3071 313.691 97.5544 313.99C103.807 314.19 109.494 310.712 114.955 307.65C123.127 303.067 131.67 299.182 140.493 296.035C148.199 293.287 156.362 291.084 164.495 291.995C176.912 293.369 230.588 319.347 254.785 303.996C271.358 293.472 284.284 293.385 296.732 291.99C304.865 291.079 313.023 293.282 320.734 296.03C329.557 299.177 338.1 303.062 346.272 307.645C351.728 310.707 357.42 314.185 363.673 313.985C372.92 313.686 379.748 305.689 387.551 300.708C404.952 289.602 428.096 293.462 447.145 285.491C454.086 282.562 461.222 276.109 459.439 268.755Z" fill="url(#paint0_linear)"/>
<path d="M456.922 268.606C456.049 265.004 453.177 262.266 451.065 259.209C448.53 255.436 447.051 251.051 446.779 246.511C446.508 241.971 447.456 237.441 449.524 233.391C451.579 229.516 454.744 225.513 453.593 221.288C452.817 218.442 450.254 216.492 447.736 214.968C438.163 209.192 427.113 206.344 415.946 206.776C402.26 207.331 388.62 212.812 375.191 210.095C362.111 207.45 351.045 200.873 337.344 200.096C327.125 199.52 316.999 200.168 306.786 199.067C281.49 196.318 256.007 195.709 230.609 197.245C205.21 195.709 179.727 196.318 154.431 199.067C144.218 200.189 134.092 199.535 123.874 200.096C110.177 200.868 99.106 207.445 86.0262 210.095C72.6021 212.812 58.9571 207.331 45.271 206.776C34.1036 206.344 23.0537 209.192 13.4807 214.968C10.9633 216.512 8.39977 218.442 7.62402 221.288C6.47323 225.513 9.67899 229.521 11.6929 233.391C13.7609 237.441 14.7086 241.971 14.4376 246.511C14.1666 251.051 12.6867 255.436 10.1516 259.209C8.03502 262.266 5.16833 264.988 4.29497 268.606C2.49174 275.872 9.54542 282.274 16.4347 285.135C35.2633 293.014 58.1557 289.201 75.3609 300.183C83.067 305.107 89.833 313.022 98.993 313.316C105.158 313.516 110.809 310.074 116.203 307.042C124.287 302.508 132.737 298.664 141.464 295.551C149.093 292.829 157.159 290.652 165.204 291.553C177.534 292.932 230.603 318.606 254.513 303.425C270.906 293.019 283.688 292.932 295.998 291.553C304.043 290.652 312.114 292.829 319.738 295.551C328.465 298.664 336.915 302.508 344.998 307.042C350.398 310.068 356.023 313.511 362.209 313.316C371.353 313.022 378.109 305.113 385.841 300.183C403.051 289.201 425.943 293.014 444.767 285.135C451.631 282.274 458.684 275.872 456.922 268.606Z" fill="#E1B61E"/>
<path opacity="0.6" d="M17.9502 112.813C19.4195 112.298 20.9812 111.809 22.5173 112.077C25.086 112.525 26.8893 114.964 27.6547 117.47C28.4202 119.976 28.3945 122.616 28.8826 125.189C29.3706 127.762 30.5368 130.423 32.8384 131.653C35.14 132.883 37.8577 132.399 40.4109 132.101C43.7599 131.714 47.1403 131.683 50.4957 132.008C53.311 132.281 56.6195 133.233 57.4466 135.945C58.1248 138.158 56.7788 140.417 55.9054 142.552C54.2306 146.546 54.097 151.265 56.0133 155.145C57.9295 159.025 61.8134 161.917 63.4369 166.013C63.9072 167.038 64.0438 168.185 63.8273 169.292C63.5872 170.066 63.1922 170.784 62.6662 171.401C61.3922 173.043 59.8715 174.489 58.7104 176.218C56.2907 179.82 55.628 184.298 55.3506 188.625C55.0738 192.881 55.0979 197.151 55.4225 201.403C52.2681 200.374 48.7849 201.29 45.533 200.616C38.6129 199.185 34.2923 190.982 27.2437 190.483C23.9096 190.246 20.3236 191.821 17.3491 190.293C15.928 189.473 14.8159 188.207 14.1844 186.69C12.9272 184.007 12.6403 180.969 13.3727 178.096C13.8865 176.11 14.9139 174.165 14.7136 172.122C14.5441 170.372 13.496 168.828 12.2939 167.547C8.86721 163.904 3.89418 161.675 1.43336 157.316C0.314139 155.246 -0.152874 152.885 0.0938103 150.543C0.340494 148.202 1.28931 145.99 2.81532 144.199C3.69362 143.34 4.52536 142.435 5.30697 141.487C6.48858 139.82 6.8482 137.715 7.00746 135.672C7.34653 130.778 6.49372 125.596 8.09145 120.841C9.52479 116.539 13.9019 114.254 17.9502 112.813Z" fill="#E1B61E"/>
<path opacity="0.6" d="M18.022 112.957C18.022 112.957 32.0523 191.008 50.2695 200.317" stroke="#535461" stroke-miterlimit="10"/>
<path opacity="0.6" d="M57.0561 134.56C57.0561 134.56 42.0291 136.619 27.0176 152.083" stroke="#535461" stroke-miterlimit="10"/>
<path opacity="0.6" d="M29.6583 161.15C29.6583 161.15 18.0939 149.829 0.0256348 151.748" stroke="#535461" stroke-miterlimit="10"/>
<path opacity="0.6" d="M63.6732 166.075C63.6732 166.075 42.5687 167.871 34.7546 175.987" stroke="#535461" stroke-miterlimit="10"/>
<path opacity="0.6" d="M37.9142 183.546C37.9142 183.546 26.0981 181.488 15.1914 188.461" stroke="#535461" stroke-miterlimit="10"/>
<path opacity="0.6" d="M452.314 51.5022C449.956 50.6634 447.454 49.8967 444.993 50.3238C440.883 51.0442 437.985 54.9553 436.773 58.9641C435.561 62.9729 435.586 67.2493 434.805 71.3662C434.024 75.4831 432.154 79.7492 428.466 81.7253C424.777 83.7014 420.421 82.9192 416.326 82.4458C410.963 81.8195 405.549 81.7626 400.174 82.276C395.658 82.7134 390.362 84.2418 389.036 88.5851C387.952 92.1359 390.105 95.7485 391.543 99.1706C394.23 105.567 394.446 113.137 391.369 119.359C388.24 125.688 382.07 130.217 379.47 136.778C378.813 138.446 378.397 140.293 378.843 142.027C379.229 143.271 379.864 144.423 380.708 145.414C382.763 148.048 385.188 150.369 387.048 153.133C390.927 158.896 391.98 166.08 392.432 173.017C392.876 179.837 392.838 186.679 392.319 193.494C397.374 191.826 402.964 193.313 408.173 192.238C419.265 189.948 426.19 176.8 437.487 175.997C442.83 175.621 448.579 178.138 453.346 175.688C455.668 174.494 457.318 172.266 458.422 169.894C460.404 165.593 460.838 160.738 459.65 156.153C458.813 152.968 457.184 149.855 457.503 146.577C457.775 143.772 459.45 141.297 461.381 139.249C466.873 133.408 474.846 129.836 478.792 122.853C482.491 116.307 481.556 107.451 476.578 101.826C475.273 100.349 473.721 99.0831 472.581 97.4776C470.685 94.8067 470.079 91.4309 469.853 88.158C469.313 80.3101 470.644 72.0095 468.111 64.3881C465.799 57.4511 458.787 53.782 452.314 51.5022Z" fill="#E1B61E"/>
<path opacity="0.6" d="M452.18 51.7081C452.18 51.7081 429.694 176.815 400.487 191.734" stroke="#535461" stroke-miterlimit="10"/>
<path opacity="0.6" d="M389.612 86.3362C389.612 86.3362 413.696 89.6503 437.759 114.429" stroke="#535461" stroke-miterlimit="10"/>
<path opacity="0.6" d="M433.526 128.956C433.526 128.956 452.067 110.796 481.022 113.883" stroke="#535461" stroke-miterlimit="10"/>
<path opacity="0.6" d="M379.033 136.85C379.033 136.85 412.858 139.727 425.383 152.742" stroke="#535461" stroke-miterlimit="10"/>
<path opacity="0.6" d="M420.297 164.856C420.297 164.856 439.249 161.531 456.722 172.729" stroke="#535461" stroke-miterlimit="10"/>
<path d="M38.4844 0V12.8601V254.835H411.939V12.8601V0H38.4844Z" fill="url(#paint1_linear)"/>
<path d="M407.96 12H44V250.661H407.96V12Z" fill="white"/>
<path d="M407.983 0.210999H44.0225V17.7695H407.983V0.210999Z" fill="#EEEEEE"/>
<path d="M57.8729 12.9785C60.2194 12.9785 62.1216 11.0731 62.1216 8.72263C62.1216 6.3722 60.2194 4.4668 57.8729 4.4668C55.5265 4.4668 53.6243 6.3722 53.6243 8.72263C53.6243 11.0731 55.5265 12.9785 57.8729 12.9785Z" fill="#FF5252"/>
<path d="M69.5607 12.9785C71.9071 12.9785 73.8093 11.0731 73.8093 8.72263C73.8093 6.3722 71.9071 4.4668 69.5607 4.4668C67.2142 4.4668 65.312 6.3722 65.312 8.72263C65.312 11.0731 67.2142 12.9785 69.5607 12.9785Z" fill="#FFFF00"/>
<path d="M81.2484 12.9785C83.5949 12.9785 85.497 11.0731 85.497 8.72263C85.497 6.3722 83.5949 4.4668 81.2484 4.4668C78.9019 4.4668 76.9998 6.3722 76.9998 8.72263C76.9998 11.0731 78.9019 12.9785 81.2484 12.9785Z" fill="#69F0AE"/>
<path opacity="0.5" d="M193.599 45.893H57.9707V51.5537H193.599V45.893Z" fill="#3356B3"/>
<path opacity="0.5" d="M193.599 57.2144H57.9707V62.8751H193.599V57.2144Z" fill="#3356B3"/>
<path opacity="0.5" d="M193.599 68.5358H57.9707V74.1965H193.599V68.5358Z" fill="#3356B3"/>
<path opacity="0.5" d="M193.599 79.8573H104.721V85.518H193.599V79.8573Z" fill="#3356B3"/>
<path opacity="0.5" d="M129.381 91.1787H57.9707V96.8394H129.381V91.1787Z" fill="#3356B3"/>
<path opacity="0.5" d="M151.472 102.5H96.5012V108.161H151.472V102.5Z" fill="#3356B3"/>
<path opacity="0.5" d="M371.353 85.518H211.579V177.633H371.353V85.518Z" fill="#2E4DAB"/>
<path d="M390.362 94.2664H230.588V186.382H390.362V94.2664Z" fill="#EEEEEE"/>
<path opacity="0.5" d="M486.421 179.249C486.753 178.824 486.933 178.301 486.935 177.762C486.935 177.762 486.935 177.731 486.935 177.721C486.935 177.71 486.966 177.613 486.981 177.561V177.494C486.983 177.445 486.983 177.395 486.981 177.345C486.981 177.345 486.981 177.304 486.981 177.283C486.987 177.222 486.987 177.16 486.981 177.098C486.678 175.04 474.466 161.629 471.415 145.269C471.077 143.488 470.573 141.743 469.909 140.056C470.003 139.213 469.948 138.359 469.745 137.535C469.231 135.44 468.204 133.315 468.717 131.226C468.789 130.952 468.884 130.686 469 130.428C469.64 129.485 470.229 128.508 470.762 127.5C470.961 127.171 471.133 126.827 471.276 126.471C473.151 121.52 467.346 116.41 468.414 111.243C468.877 109.005 470.608 107.049 470.562 104.77C470.505 102.161 468.111 100.138 465.625 99.1706C463.138 98.2032 460.4 97.9253 457.96 96.8446C452.612 94.4722 449.683 88.7446 444.803 85.5592C438.602 81.5195 430.51 82.2399 423.077 83.2846C422.832 83.3206 422.6 83.4164 422.401 83.5636C422.202 83.7108 422.042 83.9048 421.936 84.1285H421.864C421.808 84.2932 421.741 84.4528 421.669 84.6123C420.641 86.3671 418.91 87.7 417.199 88.9299C415.114 90.4017 412.879 91.8529 411.605 94.0348C411.415 94.359 411.255 94.6678 411.117 94.9662C408.342 99.9219 411.677 102.063 415.74 103.251C415.619 103.96 415.557 104.678 415.555 105.397C415.555 112.602 421.571 118.484 428.985 118.484C429.57 118.483 430.155 118.445 430.736 118.371L431.168 118.654H431.266C432.642 119.647 433.834 120.892 434.348 122.374L430.043 125.668C430.043 125.668 430.218 126.121 430.474 126.841L413.552 134.653C407.14 134.951 396.763 114.722 396.763 114.722C396.763 114.722 395.222 103.123 389.74 101.039C388.086 100.411 387.428 101.723 387.315 103.864C384.864 106.437 388.98 120.887 388.98 120.887L402.106 144.091C403.328 146.468 403.647 147.956 409.432 148.851C414.194 149.582 429.031 144.302 434.194 142.388L434.435 144.446C433.835 146.015 433.569 147.693 433.655 149.371C433.655 153.164 435.345 158.68 443.595 163.075C443.595 163.075 452.113 174.103 451.168 184.514C451.168 184.514 451.579 184.946 452.237 185.512C452.144 188.445 451.723 192.063 450.248 193.473C450.151 193.565 450.079 193.68 450.038 193.808C449.998 193.936 449.99 194.072 450.017 194.204C449.986 194.358 450.003 194.518 450.068 194.661C450.133 194.804 450.241 194.923 450.377 195.001L439.624 213.862C439.223 214.377 438.818 214.891 438.402 215.406C436.406 217.954 434.19 220.322 431.779 222.482C429.986 224.082 428.122 225.832 427.752 226.485C427.181 227.515 425.748 230.834 426.354 233.577C427.139 236.902 427.461 240.321 427.31 243.735L425.918 268.133C425.451 270.856 424.807 273.547 423.991 276.186H423.78C423.78 276.186 418.592 282.434 410.351 283.906C402.111 285.377 402.414 289.566 404.854 290.153C407.294 290.74 436.907 289.556 436.907 289.556C436.907 289.556 438.026 287.369 437.718 285.372C447.171 284.461 460.266 282.918 460.266 282.918C460.266 282.918 462.059 278.6 459.455 276.716C458.474 275.962 457.747 274.926 457.369 273.747C457.215 273.088 457.045 272.337 456.881 271.55C456.84 271.164 456.84 270.927 456.84 270.927H456.752C456.295 268.627 455.93 266.162 456.141 264.87C456.907 261.448 458.89 241.666 454.004 236.016C451.785 233.443 452.088 230.52 453.074 228.081C458.936 224.236 467.135 215.967 471.877 210.965C472.144 211.186 472.391 211.407 472.622 211.628L472.776 211.778C472.776 211.778 488.913 203.776 488.979 189.649C489.004 186.023 488.125 182.448 486.421 179.249ZM434.733 278.898C434.704 278.383 434.723 277.866 434.79 277.355L434.276 277.298C434.574 275.054 435.304 272.543 436.937 270.809C439.743 265.719 441.726 260.217 442.815 254.506L445.779 265.74C445.779 265.74 446.077 268.066 446.159 270.526H446.108C446.108 270.526 441.972 276.439 434.733 278.898Z" fill="url(#paint2_linear)"/>
<path d="M448.132 133.397C448.132 133.397 440.883 136.012 436.829 140.37C436.829 140.37 417.107 148.213 411.594 147.343C406.082 146.474 405.794 145.017 404.633 142.712L392.16 120.069C392.16 120.069 386.94 101.183 392.16 103.215C397.379 105.248 398.838 116.595 398.838 116.595C398.838 116.595 408.702 136.351 414.79 136.063L431.307 128.179C431.307 128.179 435.078 122.657 436.819 122.951C438.561 123.244 448.132 133.397 448.132 133.397Z" fill="#FDB797"/>
<g opacity="0.05">
<path opacity="0.05" d="M448.132 133.397C448.132 133.397 440.883 136.012 436.829 140.37C436.829 140.37 417.107 148.213 411.594 147.343C406.082 146.474 405.794 145.017 404.633 142.712L392.16 120.069C392.16 120.069 386.94 101.183 392.16 103.215C397.379 105.248 398.838 116.595 398.838 116.595C398.838 116.595 408.702 136.351 414.79 136.063L431.307 128.179C431.307 128.179 435.078 122.657 436.819 122.951C438.561 123.244 448.132 133.397 448.132 133.397Z" fill="black"/>
</g>
<path d="M436.223 122.688L430.438 127.238C430.438 127.238 433.331 134.818 432.606 137.473C431.882 140.129 444.176 133.305 444.176 133.305L439.116 121.932L436.223 122.688Z" fill="#F9CE43"/>
<g opacity="0.05">
<path opacity="0.05" d="M436.223 122.688L430.438 127.238C430.438 127.238 433.331 134.818 432.606 137.473C431.882 140.129 444.176 133.305 444.176 133.305L439.116 121.932L436.223 122.688Z" fill="black"/>
</g>
<path d="M426.236 117.625C426.236 117.625 439.141 121.839 433.197 129.244L451.759 120.239C451.759 120.239 443.929 120.82 438.997 108.917L426.236 117.625Z" fill="#FDB797"/>
<path d="M450.598 193.458L434.646 222.219L445.383 264.036C445.383 264.036 446.544 273.335 444.803 274.205H456.984C456.984 274.205 454.636 265.971 455.242 263.167C455.966 259.827 457.852 240.524 453.187 234.987C448.522 229.449 455.509 222.204 455.509 222.204L469.432 200.122L450.598 193.458Z" fill="#FDB797"/>
<g opacity="0.05">
<path opacity="0.05" d="M450.598 193.458L434.646 222.219L445.383 264.036C445.383 264.036 446.544 273.335 444.803 274.205H456.984C456.984 274.205 454.81 265.925 455.242 263.167C455.673 260.408 457.852 240.524 453.187 234.987C448.522 229.449 455.509 222.204 455.509 222.204L469.432 200.122L450.598 193.458Z" fill="black"/>
</g>
<path d="M445.691 268.73C445.691 268.73 441.273 275.25 433.567 277.319C425.861 279.387 426.488 283.422 428.846 283.813C431.204 284.204 459.157 280.813 459.157 280.813C459.157 280.813 460.857 276.598 458.386 274.756C455.915 272.914 455.9 269.095 455.9 269.095L445.691 268.73Z" fill="#0D134D"/>
<g opacity="0.1">
<path opacity="0.1" d="M451.471 181.833C451.471 181.833 452.16 191.281 449.647 193.761C449.559 193.843 449.492 193.945 449.451 194.059C449.41 194.172 449.397 194.293 449.412 194.413C449.427 194.533 449.47 194.647 449.538 194.746C449.606 194.846 449.696 194.928 449.801 194.986L457.271 198.974L463.95 186.191L451.471 181.833Z" fill="black"/>
</g>
<path d="M451.471 181.544C451.471 181.544 452.16 190.993 449.647 193.473C449.559 193.555 449.492 193.657 449.451 193.771C449.41 193.884 449.397 194.005 449.412 194.125C449.427 194.244 449.47 194.359 449.538 194.458C449.606 194.558 449.696 194.64 449.801 194.698L457.271 198.686L463.95 185.903L451.471 181.544Z" fill="#021D70"/>
<path d="M451.759 200.137C451.759 200.137 447.449 203.019 438.402 214.881C436.51 217.365 434.404 219.677 432.108 221.792C430.408 223.336 428.635 225.065 428.281 225.703C427.736 226.686 426.375 229.954 426.955 232.63C427.701 235.881 428.007 239.218 427.865 242.551L426.544 266.383C426.544 266.383 424.803 277.133 422.486 278.296L434.379 280.355C434.379 280.355 433.511 272.8 436.989 269.033C436.989 269.033 445.111 255.087 443.082 239.397C443.082 239.397 442.214 232.424 450.043 228.647C457.872 224.869 473.829 206.565 473.829 206.565L451.759 200.137Z" fill="#FDB797"/>
<path d="M424.494 274.226C424.494 274.226 419.563 280.329 411.733 281.78C403.904 283.231 404.191 287.302 406.514 287.884C408.836 288.465 436.968 287.302 436.968 287.302C436.968 287.302 439.023 283.237 436.68 281.199C434.338 279.161 434.939 275.389 434.939 275.389L424.494 274.226Z" fill="#0D134D"/>
<g opacity="0.1">
<path opacity="0.1" d="M459.013 184.74C459.013 184.74 455.473 196.648 450.988 200.117C450.905 200.179 450.84 200.263 450.801 200.359C450.761 200.455 450.749 200.56 450.764 200.663C450.779 200.766 450.822 200.863 450.888 200.943C450.953 201.024 451.04 201.085 451.137 201.12C454.846 202.474 466.765 207.033 470.906 211.181L471.05 211.325C471.05 211.325 495.848 198.686 482.506 177.186L459.013 184.74Z" fill="black"/>
</g>
<path d="M459.013 184.452C459.013 184.452 455.473 196.36 450.988 199.828C450.905 199.891 450.84 199.974 450.801 200.071C450.761 200.167 450.749 200.272 450.764 200.375C450.779 200.478 450.822 200.574 450.888 200.655C450.953 200.735 451.04 200.797 451.137 200.832C454.846 202.185 466.765 206.745 470.906 210.893L471.05 211.037C471.05 211.037 495.848 198.398 482.506 176.897L459.013 184.452Z" fill="#021D70"/>
<g opacity="0.1">
<path opacity="0.1" d="M438.648 125.406C436.805 126.647 434.791 127.611 432.668 128.267L434.662 146.036C434.662 146.036 430.002 156.483 443.328 163.78C443.328 163.78 451.42 174.551 450.521 184.72C450.521 184.72 454.862 189.382 457.765 188.224C460.667 187.066 458.052 188.806 458.633 188.517C459.213 188.229 460.369 190.849 469.365 188.543C478.36 186.238 484.777 180.16 484.474 178.122C484.171 176.084 472.622 162.982 469.76 146.993C466.899 131.004 449.817 119.632 449.817 119.632C449.817 119.632 449.252 119.945 448.276 120.362C444.937 121.782 441.717 123.468 438.648 125.406Z" fill="black"/>
</g>
<g opacity="0.1">
<path opacity="0.1" d="M450.762 200.225C450.752 200.35 450.783 200.474 450.851 200.58C450.919 200.685 451.019 200.765 451.137 200.806C454.333 201.974 463.621 205.52 468.779 209.133C464.315 205.52 454.816 201.769 450.762 200.225Z" fill="black"/>
<path opacity="0.1" d="M482.506 176.897L481.993 177.072C493.392 197.034 471.923 209.091 470.048 210.095C470.372 210.363 470.665 210.61 470.932 210.893L471.076 211.037C471.076 211.037 495.848 198.398 482.506 176.897Z" fill="black"/>
</g>
<path d="M469.452 187.936C460.462 190.262 459.301 187.648 458.72 187.936C458.139 188.224 460.775 186.485 457.852 187.648C454.929 188.811 450.603 184.159 450.603 184.159C450.644 183.644 450.665 183.165 450.665 182.666C450.695 172.95 443.328 163.24 443.328 163.24C429.971 155.979 434.625 145.516 434.625 145.516L434.081 140.751L432.586 127.752C434.705 127.093 436.717 126.125 438.556 124.881C441.62 122.938 444.834 121.245 448.168 119.817C449.149 119.395 449.709 119.081 449.709 119.081C449.709 119.081 466.822 130.402 469.745 146.391C472.668 162.38 484.248 175.446 484.535 177.479C484.823 179.512 478.443 185.61 469.452 187.936Z" fill="#3356B3"/>
<g opacity="0.1">
<path opacity="0.1" d="M439.285 109.2L426.524 117.918C428.283 118.529 429.956 119.365 431.502 120.403C435.848 119.791 438.51 116.673 440.302 112.834C439.604 111.712 439.912 110.708 439.285 109.2Z" fill="black"/>
</g>
<path d="M429.426 120.244C436.474 120.244 442.188 114.521 442.188 107.461C442.188 100.401 436.474 94.6781 429.426 94.6781C422.378 94.6781 416.665 100.401 416.665 107.461C416.665 114.521 422.378 120.244 429.426 120.244Z" fill="#FDB797"/>
<g opacity="0.1">
<path opacity="0.1" d="M471.481 186.485C462.491 188.811 461.33 186.196 460.749 186.485C460.169 186.773 462.804 185.033 459.881 186.196C456.958 187.359 452.632 182.707 452.632 182.707C452.673 182.193 452.694 181.714 452.694 181.215C452.73 171.515 445.378 161.788 445.378 161.788C432.021 154.527 436.675 144.065 436.675 144.065L436.136 139.295L434.723 126.99C434.04 127.299 433.334 127.552 432.612 127.747L434.081 140.751L434.631 145.516C434.631 145.516 430.007 155.978 443.333 163.24C443.333 163.24 450.685 172.966 450.649 182.666C450.649 183.181 450.649 183.659 450.587 184.159C450.587 184.159 454.939 188.79 457.836 187.648C460.734 186.505 458.124 188.229 458.705 187.936C459.285 187.642 460.446 190.262 469.437 187.936C473.515 186.879 477.338 185.004 480.672 182.424C477.844 184.26 474.741 185.63 471.481 186.485Z" fill="black"/>
</g>
<path d="M447.408 135.929C447.408 135.929 440.159 138.543 436.105 142.902C436.105 142.902 416.383 150.745 410.87 149.875C405.358 149.006 405.07 147.549 403.909 145.244L391.435 122.601C391.435 122.601 386.216 103.715 391.435 105.747C396.655 107.78 398.114 119.127 398.114 119.127C398.114 119.127 407.978 138.883 414.066 138.595L430.588 130.701C430.588 130.701 434.358 125.179 436.1 125.472C437.842 125.766 447.408 135.929 447.408 135.929Z" fill="#FDB797"/>
<g opacity="0.1">
<path opacity="0.1" d="M437.616 125.292C437.616 125.292 431.6 124.742 429.858 132.296C428.117 139.851 443.215 144.497 443.215 144.497L451.338 133.176L437.616 125.292Z" fill="black"/>
</g>
<path d="M437.908 125.292C437.908 125.292 431.892 124.742 430.151 132.296C428.409 139.851 443.508 144.497 443.508 144.497L451.63 133.176L437.908 125.292Z" fill="#3356B3"/>
<g opacity="0.1">
<path opacity="0.1" d="M435.453 126.635C434.542 127.095 433.589 127.464 432.606 127.737L432.658 128.174C433.616 127.711 434.549 127.198 435.453 126.635Z" fill="black"/>
<path opacity="0.1" d="M484.535 177.479C484.248 175.42 472.642 162.37 469.745 146.391C466.847 130.413 449.709 119.081 449.709 119.081C449.709 119.081 449.144 119.395 448.168 119.817C445.561 120.938 443.025 122.219 440.574 123.651C442.201 122.793 443.862 122 445.558 121.273C446.539 120.851 447.099 120.537 447.099 120.537C447.099 120.537 464.212 131.859 467.135 147.848C470.058 163.837 481.638 176.903 481.926 178.935C482.111 180.217 479.639 183.114 475.535 185.666C481.17 182.862 484.756 179.012 484.535 177.479Z" fill="black"/>
</g>
<path opacity="0.1" d="M441.355 125.411C441.355 125.411 448.856 129.131 450.269 136.284" stroke="black" stroke-miterlimit="10"/>
<g opacity="0.1">
<path opacity="0.1" d="M423.015 106.741C424.212 107.008 425.548 107.384 426.139 108.459C426.565 109.242 426.488 110.224 426.904 111.032C427.973 113.05 431.106 112.355 433.069 113.539C436.665 115.71 434.317 122.483 437.898 124.664C438.571 125.076 439.367 125.241 440.061 125.616C443.087 127.274 442.661 131.658 442.116 135.07C441.571 138.482 442.219 143.149 445.635 143.633C447.515 143.895 449.627 142.65 451.209 143.695C452.036 144.24 452.411 145.239 453.105 145.964C453.581 146.44 454.186 146.766 454.845 146.903C455.504 147.039 456.188 146.979 456.814 146.731C457.975 146.247 458.813 145.141 460.02 144.786C461.962 144.215 464.13 145.789 466 145.064C467.87 144.338 468.296 141.631 467.813 139.588C467.33 137.545 466.344 135.471 466.858 133.413C467.284 131.715 468.671 130.418 469.277 128.781C471.055 123.949 465.543 118.957 466.56 113.909C467.002 111.722 468.646 109.792 468.615 107.585C468.563 105.011 466.287 103.061 463.919 102.114C461.551 101.167 458.951 100.9 456.634 99.8448C451.553 97.529 448.774 91.9301 444.13 88.8218C442.05 87.462 439.705 86.5604 437.251 86.1767C434.084 85.6661 430.845 85.838 427.749 86.681C424.654 87.5241 421.774 89.0188 419.301 91.0655C418.843 91.436 418.376 91.786 417.903 92.1256C415.92 93.5614 413.793 94.9766 412.586 97.1071C408.178 104.795 418.304 105.675 423.015 106.741Z" fill="black"/>
</g>
<path d="M423.375 106.015C424.572 106.283 425.907 106.658 426.498 107.734C426.924 108.516 426.847 109.499 427.264 110.307C428.332 112.324 431.466 111.629 433.428 112.813C437.025 114.985 434.677 121.757 438.258 123.939C438.931 124.351 439.727 124.515 440.42 124.891C443.446 126.548 443.02 130.932 442.475 134.344C441.931 137.756 442.578 142.424 445.995 142.907C447.875 143.17 449.986 141.925 451.569 142.969C452.396 143.515 452.771 144.513 453.464 145.239C453.941 145.715 454.546 146.041 455.205 146.177C455.864 146.313 456.548 146.254 457.174 146.005C458.335 145.522 459.172 144.415 460.379 144.06C462.321 143.489 464.489 145.064 466.359 144.338C468.229 143.612 468.656 140.906 468.173 138.863C467.69 136.82 466.703 134.746 467.217 132.687C467.644 130.989 469.031 129.692 469.637 128.056C471.414 123.224 465.902 118.232 466.919 113.183C467.361 110.996 469.005 109.067 468.974 106.859C468.923 104.286 466.647 102.336 464.279 101.389C461.91 100.442 459.311 100.174 456.994 99.1192C451.913 96.8034 449.134 91.2045 444.489 88.0962C442.602 86.8555 440.49 85.9987 438.273 85.5746C435.009 84.9474 431.646 85.0502 428.426 85.8757C425.206 86.7013 422.207 88.2292 419.645 90.3502C419.193 90.7156 418.725 91.0655 418.263 91.3794C416.28 92.8152 414.153 94.2304 412.946 96.3609C408.538 104.07 418.669 104.955 423.375 106.015Z" fill="#E1B61E"/>
<path d="M319.979 186.382H230.588V169.508C252.427 159.282 286.031 153.539 319.979 186.382Z" fill="#E1B61E"/>
<g opacity="0.1">
<path opacity="0.1" d="M389.334 183.968V186.382H277.852V185.867C277.852 185.867 332.709 132.363 389.334 183.968Z" fill="black"/>
</g>
<path d="M390.362 183.968V186.382H278.88V185.867C278.88 185.867 333.737 132.363 390.362 183.968Z" fill="#E1B61E"/>
<path d="M249.082 118.968C253.622 118.968 257.302 115.281 257.302 110.734C257.302 106.187 253.622 102.5 249.082 102.5C244.543 102.5 240.863 106.187 240.863 110.734C240.863 115.281 244.543 118.968 249.082 118.968Z" fill="#E1B61E"/>
<path d="M319.064 104.507C318.124 104.507 317.076 104.507 316.362 104.564C316.043 104.581 315.728 104.645 315.427 104.754L310.593 106.493C314.497 106.591 318.571 106.56 322.573 106.53L345.013 106.355C347.305 106.355 349.709 106.313 351.615 106.18C352.894 106.087 353.834 105.953 355.016 105.85C359.265 105.469 365.455 105.541 370.988 105.562C376.521 105.583 383.2 105.439 385.147 104.883H373.269C371.99 104.883 370.644 104.883 369.514 104.821C368.194 104.744 367.387 104.6 366.226 104.497C364.304 104.332 361.654 104.312 359.188 104.301C345.651 104.245 332.283 104.564 319.064 104.507Z" fill="#F4F4F4"/>
<path d="M332.36 114.48C332.155 114.48 331.929 114.48 331.774 114.48C331.704 114.484 331.635 114.498 331.569 114.521L330.542 114.897C331.389 114.897 332.268 114.897 333.136 114.897L337.996 114.861C338.51 114.861 339.023 114.861 339.424 114.825C339.702 114.825 339.907 114.774 340.159 114.753C341.078 114.671 342.419 114.686 343.621 114.691C344.651 114.726 345.682 114.676 346.704 114.542H344.135C343.858 114.542 343.565 114.542 343.323 114.542C343.082 114.542 342.861 114.496 342.609 114.47C342.193 114.434 341.618 114.429 341.068 114.429C338.14 114.429 335.242 114.496 332.36 114.48Z" fill="#F4F4F4"/>
<path d="M297.939 128.889C297.734 128.889 297.508 128.889 297.354 128.889C297.284 128.893 297.214 128.907 297.148 128.931L296.121 129.306C296.969 129.306 297.847 129.306 298.715 129.306L303.575 129.27C304.089 129.27 304.603 129.27 305.003 129.234C305.281 129.234 305.486 129.183 305.738 129.162C306.658 129.08 307.999 129.095 309.201 129.1C310.231 129.135 311.261 129.085 312.283 128.951H309.714C309.437 128.951 309.144 128.951 308.903 128.951C308.661 128.951 308.44 128.905 308.189 128.879C307.773 128.843 307.197 128.838 306.647 128.838C303.719 128.838 300.822 128.905 297.939 128.889Z" fill="#F4F4F4"/>
<path d="M278.628 181.817H274.765C274.765 181.817 273.557 139.496 278.628 126.435H279.594C279.594 126.435 276.213 174.319 278.628 181.817Z" fill="#E1B61E"/>
<path d="M275.972 124.258C275.972 124.258 272.833 132.965 274.282 136.835C274.282 136.835 276.455 128.853 278.988 127.644C281.52 126.435 284.176 136.835 284.176 136.835C284.176 136.835 285.625 130.305 282.969 124.999C282.969 124.999 288.281 127.901 290.937 133.464C290.937 133.464 291.42 129.862 285.142 122.338C285.142 122.338 290.696 123.79 294.318 127.176C294.318 127.176 295.525 124.515 288.04 120.162C288.04 120.162 289.006 117.017 294.801 118.469C294.801 118.469 294.801 114.352 285.625 115.082C285.625 115.082 285.625 112.422 291.662 112.906C291.662 112.906 291.662 109.519 284.659 110.729C284.659 110.729 286.108 108.552 287.074 108.068C285.866 107.956 284.66 108.301 283.693 109.036C283.693 109.036 283.935 104.682 280.313 102.989L279.83 109.036C279.83 109.036 275.772 104.245 276.691 105.166C276.933 105.408 277.657 108.31 277.415 109.761C277.415 109.761 273.306 106.375 268.24 110.003C268.24 110.003 274.518 110.487 275.484 112.664C275.484 112.664 270.172 111.696 268.964 112.422C268.964 112.422 273.074 113.873 272.828 114.841C272.828 114.841 265.584 114.841 264.608 117.501C264.608 117.501 272.093 118.469 272.576 119.194C272.576 119.194 263.884 125.483 263.401 127.176C263.401 127.176 272.335 121.855 273.783 121.855C275.232 121.855 267.264 129.574 267.747 131.529C267.767 131.514 274.307 123.774 275.972 124.258Z" fill="#E1B61E"/>
<path d="M326.277 180.232H329.226C329.226 180.232 330.151 147.899 326.277 137.921H325.538C325.538 137.921 328.127 174.494 326.277 180.232Z" fill="#E1B61E"/>
<path d="M328.307 136.259C328.307 136.259 330.706 142.913 329.596 145.866C329.596 145.866 327.937 139.768 326 138.847C324.063 137.926 322.034 145.866 322.034 145.866C322.034 145.866 320.929 140.88 322.959 136.814C320.362 138.354 318.252 140.596 316.871 143.283C316.871 143.283 316.501 140.509 321.299 134.782C321.299 134.782 317.056 135.888 314.292 138.477C314.292 138.477 313.367 136.444 319.09 133.119C319.09 133.119 318.35 130.716 313.927 131.828C313.927 131.828 313.927 128.689 320.934 129.255C320.934 129.255 320.934 127.222 316.311 127.593C316.311 127.593 316.311 125.02 321.659 125.93C321.659 125.93 320.554 124.268 319.815 123.898C320.733 123.816 321.649 124.08 322.383 124.639C322.383 124.639 322.198 121.314 324.952 120.007L325.322 124.639C325.322 124.639 328.404 120.98 327.721 121.685C327.279 122.799 327.09 123.998 327.166 125.194C327.166 125.194 330.3 122.621 334.174 125.38C334.174 125.38 329.375 125.75 328.641 127.412C328.641 127.412 332.699 126.671 333.619 127.227C333.619 127.227 330.485 128.334 330.67 129.075C330.67 129.075 336.203 129.075 336.943 131.107C336.943 131.107 331.225 131.848 330.855 132.399C330.855 132.399 337.498 137.205 337.862 138.497C337.862 138.497 331.04 134.432 329.93 134.432C328.82 134.432 334.908 140.345 334.554 141.822C334.579 141.801 329.601 135.898 328.307 136.259Z" fill="#E1B61E"/>
<path d="M361.587 173.913H363.416C363.416 173.913 363.986 153.889 361.587 147.709H361.13C361.13 147.709 362.727 170.377 361.587 173.913Z" fill="#E1B61E"/>
<path d="M362.846 146.679C362.846 146.679 364.33 150.796 363.647 152.628C363.647 152.628 362.619 148.851 361.417 148.28C360.215 147.709 358.962 152.628 358.962 152.628C358.962 152.628 358.278 149.541 359.532 147.019C357.924 147.972 356.617 149.36 355.761 151.023C355.761 151.023 355.535 149.304 358.504 145.758C356.911 146.203 355.431 146.983 354.163 148.048C354.163 148.048 353.593 146.788 357.133 144.729C357.133 144.729 356.676 143.242 353.932 143.926C353.932 143.926 353.932 141.981 358.273 142.326C358.273 142.326 358.273 141.065 355.417 141.297C355.417 141.297 355.417 139.696 358.73 140.267C358.425 139.785 358.039 139.359 357.59 139.007C358.161 138.954 358.731 139.118 359.188 139.465C359.188 139.465 359.075 137.406 360.785 136.603L361.011 139.465C361.011 139.465 362.933 137.2 362.496 137.633C362.223 138.322 362.105 139.064 362.152 139.804C362.787 139.341 363.557 139.101 364.342 139.121C365.127 139.142 365.883 139.422 366.493 139.917C366.493 139.917 363.524 140.144 363.066 141.178C363.066 141.178 365.579 140.72 366.149 141.065C366.149 141.065 364.207 141.75 364.32 142.208C364.32 142.208 367.747 142.208 368.204 143.468C368.204 143.468 364.664 143.926 364.433 144.271C364.433 144.271 368.543 147.246 368.774 148.048C368.774 148.048 364.546 145.532 363.863 145.532C363.179 145.532 366.945 149.196 366.719 150.107C366.729 150.112 363.642 146.448 362.846 146.679Z" fill="#E1B61E"/>
<path d="M294.8 151.27L294.415 149.211C294.415 149.06 294.383 148.91 294.323 148.771C294.263 148.633 294.176 148.507 294.066 148.403L292.283 147.529C292.152 147.374 292.044 147.201 291.965 147.014L291.995 146.968C292.094 146.846 292.164 146.703 292.201 146.551C292.204 146.511 292.204 146.472 292.201 146.433H292.227C292.391 146.454 292.558 146.414 292.694 146.319C292.83 146.223 292.925 146.08 292.961 145.918V145.872C292.93 146.011 292.854 146.136 292.746 146.229C292.637 146.321 292.502 146.376 292.36 146.386C292.608 146.22 292.812 145.995 292.952 145.731C293.093 145.467 293.167 145.172 293.167 144.873C293.167 144.873 293.167 144.822 293.167 144.796C293.245 144.748 293.313 144.683 293.365 144.607C293.418 144.531 293.453 144.444 293.47 144.353V144.307C293.448 144.393 293.409 144.474 293.355 144.545C293.301 144.616 293.234 144.675 293.156 144.719C293.144 144.543 293.106 144.369 293.043 144.204H293.09C293.265 144.204 293.434 144.134 293.558 144.01C293.683 143.885 293.752 143.716 293.752 143.54C293.752 143.54 293.752 143.51 293.752 143.494C293.741 143.661 293.666 143.818 293.545 143.932C293.423 144.047 293.262 144.111 293.095 144.112H293.013V144.081C293.21 144.021 293.386 143.907 293.52 143.751C293.655 143.596 293.743 143.405 293.773 143.201C293.773 143.201 293.773 143.17 293.773 143.154C293.764 143.283 293.718 143.407 293.639 143.51C293.648 143.345 293.595 143.182 293.491 143.054C293.387 142.927 293.239 142.842 293.076 142.818C292.913 142.793 292.746 142.831 292.609 142.922C292.472 143.014 292.374 143.154 292.334 143.314L292.216 143.247C292.253 143.114 292.33 142.997 292.437 142.91C292.544 142.823 292.675 142.772 292.812 142.763H292.766C292.627 142.762 292.491 142.805 292.378 142.885C292.265 142.966 292.179 143.079 292.134 143.211C291.737 143.026 291.287 142.991 290.866 143.112C290.445 143.233 290.082 143.502 289.843 143.87C289.704 143.973 289.524 144.122 289.529 144.251C289.47 144.31 289.417 144.376 289.37 144.446C289.175 144.876 289.103 145.352 289.165 145.82C289.193 146.053 289.165 146.289 289.083 146.509C289 146.728 288.866 146.924 288.692 147.081C288.769 147.113 288.851 147.129 288.933 147.129C289.016 147.129 289.098 147.113 289.175 147.081C289.328 147.016 289.471 146.931 289.601 146.829C289.723 146.755 289.826 146.655 289.904 146.535V146.51C289.99 146.567 290.081 146.615 290.177 146.654C290.213 146.963 290.223 147.318 290.084 147.436L290.11 147.379C289.779 147.629 289.367 147.746 288.954 147.709C288.705 147.723 288.464 147.801 288.254 147.937C288.044 148.072 287.873 148.259 287.757 148.481L287.197 150.822V150.863V150.904C287.206 150.936 287.222 150.965 287.246 150.987C287.27 151.01 287.299 151.026 287.331 151.033L287.505 151.079C287.532 151.48 287.492 151.881 287.387 152.268C287.27 152.845 287.203 153.43 287.187 154.018C287.228 154.311 287.3 155.84 287.336 156.565C287.273 156.813 287.224 157.064 287.187 157.317L286.36 162.288C286.36 162.288 285.743 166.266 285.774 167.47L285.666 168.165C285.666 168.165 283.986 170.274 284.479 170.573C284.973 170.871 285.733 171 286.457 169.878C286.555 169.614 286.714 169.376 286.92 169.183C287.002 169.112 287.066 169.022 287.106 168.921C287.146 168.82 287.162 168.71 287.151 168.602L287.099 168.087L287.187 168.118H287.238C287.238 168.118 288.065 165.396 287.973 163.487C287.973 163.487 289.514 158.022 290.67 157.162V157.126L290.778 157.075L291.024 162.37L290.773 168.206L290.716 168.556C290.716 168.556 289.036 170.666 289.529 170.964C290.023 171.262 290.783 171.391 291.507 170.269C291.605 170.005 291.764 169.767 291.97 169.575C292.052 169.503 292.116 169.413 292.156 169.312C292.196 169.211 292.212 169.101 292.201 168.993L292.124 168.221C292.411 167.238 293.151 164.408 292.848 162.766L293.362 159.277C293.876 158.696 293.809 157.219 293.809 157.219C294.215 156.37 294.323 153.04 294.323 153.04L294.425 151.393C294.502 151.387 294.58 151.387 294.657 151.393H294.708H294.739V151.362C294.754 151.349 294.766 151.334 294.775 151.316H294.806V151.275L294.8 151.27ZM293.362 154.615C293.316 154.502 293.264 154.388 293.208 154.275H293.167V154.234C293.165 154.22 293.165 154.207 293.167 154.193V154.152C293.191 154.096 293.211 154.04 293.228 153.982C293.295 153.876 293.329 153.752 293.326 153.627C293.386 153.953 293.399 154.285 293.362 154.615ZM293.208 153.205L293.105 152.104L293.136 152.016L293.275 153.416L293.208 153.205ZM288.338 153.354C288.302 153.395 288.276 153.442 288.26 153.493C288.244 153.545 288.239 153.599 288.245 153.652C288.245 153.652 288.245 153.653 288.245 153.689C288.246 153.8 288.261 153.911 288.291 154.018L288.132 154.707V153.39C288.238 153.251 288.33 153.103 288.409 152.947C288.426 153.087 288.401 153.228 288.338 153.354Z" fill="url(#paint3_linear)"/>
<path d="M289.375 144.853C289.186 145.266 289.117 145.724 289.175 146.175C289.202 146.4 289.174 146.627 289.095 146.838C289.015 147.05 288.886 147.239 288.718 147.39C288.792 147.421 288.871 147.437 288.952 147.437C289.032 147.437 289.111 147.421 289.185 147.39C289.332 147.328 289.471 147.246 289.596 147.148C289.714 147.077 289.814 146.98 289.889 146.865C289.96 146.687 289.983 146.493 289.956 146.304C289.957 145.967 289.986 145.632 290.043 145.3C290.074 145.094 290.269 144.534 290.043 144.426C289.817 144.317 289.473 144.698 289.375 144.853Z" fill="#72351C"/>
<path d="M285.98 166.729L285.82 167.758C285.82 167.758 284.202 169.816 284.68 170.079C285.158 170.341 285.887 170.491 286.586 169.41C286.679 169.156 286.831 168.927 287.028 168.741C287.107 168.672 287.168 168.585 287.206 168.487C287.245 168.39 287.259 168.284 287.248 168.18L287.089 166.61L285.98 166.729Z" fill="#333333"/>
<path d="M290.85 167.135L290.69 168.164C290.69 168.164 289.072 170.223 289.55 170.485C290.028 170.748 290.757 170.897 291.456 169.816C291.549 169.562 291.701 169.333 291.898 169.147C291.977 169.078 292.038 168.992 292.077 168.894C292.115 168.796 292.129 168.691 292.119 168.586L291.959 167.017L290.85 167.135Z" fill="#333333"/>
<path d="M288.327 154.831C288.327 154.831 287.567 155.382 287.3 157.296L286.504 162.087C286.504 162.087 285.831 166.43 285.954 167.264L287.3 167.727C287.3 167.727 288.096 165.103 288.009 163.276C288.009 163.276 289.627 157.502 290.762 157.1L291.004 162.2L290.747 167.938L291.898 168.17C291.898 168.17 293.064 164.516 292.694 162.581L293.295 158.464C293.295 158.464 293.984 156.267 293.028 154.347L288.327 154.831Z" fill="#4D8AF0"/>
<g opacity="0.1">
<path opacity="0.1" d="M290.644 157.178V157.09C289.509 157.497 287.891 163.265 287.891 163.265C287.863 164.759 287.63 166.241 287.197 167.67L287.341 167.722C287.341 167.722 288.137 165.097 288.05 163.271C288.045 163.276 289.524 158.027 290.644 157.178Z" fill="black"/>
<path opacity="0.1" d="M293.074 154.373H292.92C293.473 155.663 293.563 157.104 293.177 158.454L292.576 162.571C292.931 164.403 291.898 167.773 291.79 168.128L291.939 168.159C291.939 168.159 293.105 164.506 292.735 162.571L293.336 158.454C293.336 158.454 294.03 156.267 293.074 154.373Z" fill="black"/>
</g>
<path d="M287.295 151.079C287.294 151.119 287.307 151.157 287.331 151.188C287.355 151.219 287.39 151.241 287.428 151.249C287.804 151.344 288.155 151.519 288.456 151.764C289.021 152.206 287.855 150.879 287.855 150.879L287.464 150.966L287.305 151.11L287.295 151.079Z" fill="#F55F44"/>
<path opacity="0.1" d="M287.295 151.079C287.294 151.119 287.307 151.157 287.331 151.188C287.355 151.219 287.39 151.241 287.428 151.249C287.804 151.344 288.155 151.519 288.456 151.764C289.021 152.206 287.855 150.879 287.855 150.879L287.464 150.966L287.305 151.11L287.295 151.079Z" fill="black"/>
<path d="M292.853 152.253C293.328 151.915 293.879 151.697 294.456 151.62C294.496 151.62 294.534 151.604 294.561 151.576C294.589 151.548 294.605 151.51 294.605 151.47C294.605 151.47 293.259 150.94 292.853 152.253Z" fill="#F55F44"/>
<path opacity="0.1" d="M294.605 151.465C294.605 151.465 293.259 150.951 292.853 152.248C292.853 152.248 293.845 151.486 294.533 151.609" fill="black"/>
<path d="M291.292 147.019C292.259 147.019 293.044 146.233 293.044 145.264C293.044 144.295 292.259 143.509 291.292 143.509C290.324 143.509 289.54 144.295 289.54 145.264C289.54 146.233 290.324 147.019 291.292 147.019Z" fill="#72351C"/>
<path d="M290.084 146.494C290.084 146.494 290.331 147.523 290.084 147.734C289.838 147.945 289.339 148.337 289.714 148.64C290.089 148.944 291.43 149.458 291.877 149.206C292.324 148.954 292.833 149.031 292.709 148.517C292.586 148.002 291.61 148.11 291.595 145.552L290.084 146.494Z" fill="#FDB797"/>
<path opacity="0.1" d="M287.603 150.771C287.64 151.329 287.603 151.889 287.495 152.438C287.381 152.992 287.316 153.555 287.3 154.121C287.351 154.491 287.459 156.941 287.459 156.941C287.459 156.941 287.264 159.087 288.307 158.891C289.35 158.696 288.147 156.442 288.147 156.442L288.199 153.514C288.482 153.129 288.659 152.676 288.713 152.201C288.79 151.496 287.603 150.771 287.603 150.771Z" fill="black"/>
<path d="M287.588 150.771C287.624 151.329 287.588 151.889 287.48 152.438C287.366 152.992 287.301 153.555 287.284 154.121C287.336 154.491 287.444 156.941 287.444 156.941C287.444 156.941 287.248 159.087 288.291 158.891C289.334 158.696 288.132 156.442 288.132 156.442L288.183 153.514C288.466 153.129 288.643 152.676 288.697 152.201C288.769 151.496 287.588 150.771 287.588 150.771Z" fill="#FDB797"/>
<path opacity="0.1" d="M294.261 150.93L294.117 153.22C294.117 153.22 294.03 156.431 293.64 157.244C293.64 157.244 293.747 159.498 292.699 159.442C291.651 159.385 292.874 156.977 292.874 156.977C292.874 156.977 293.434 154.471 293.146 153.678L292.874 150.93H294.261Z" fill="black"/>
<path d="M294.276 150.93L294.133 153.22C294.133 153.22 294.045 156.431 293.655 157.244C293.655 157.244 293.763 159.498 292.715 159.442C291.667 159.385 292.889 156.977 292.889 156.977C292.889 156.977 293.449 154.471 293.162 153.678L292.889 150.93H294.276Z" fill="#FDB797"/>
<path opacity="0.1" d="M290.88 148.712C290.88 148.712 291.728 149.103 292.191 147.94L293.912 148.784C294.017 148.885 294.102 149.006 294.159 149.141C294.216 149.275 294.246 149.42 294.245 149.566L294.615 151.553C294.615 151.553 293.357 151.126 292.966 152.299L293.074 153.416C293.155 153.691 293.135 153.987 293.018 154.249C293.007 154.273 293.002 154.298 293.002 154.324C293.002 154.35 293.007 154.375 293.018 154.399C293.043 154.48 293.05 154.566 293.036 154.65C293.023 154.735 292.989 154.814 292.939 154.883C292.889 154.952 292.824 155.009 292.748 155.048C292.673 155.087 292.589 155.108 292.504 155.109C292.041 155.114 291.58 155.15 291.122 155.217C290.752 155.325 289.632 155.006 289.262 155.217C288.892 155.428 288.111 155.057 288.111 155.057L288.322 154.152C288.322 154.152 288.178 153.709 288.358 153.55C288.538 153.39 288.43 152.006 288.271 151.615C288.271 151.615 287.634 151.012 287.243 151.1L287.757 148.81C287.868 148.596 288.032 148.415 288.234 148.284C288.436 148.154 288.668 148.078 288.908 148.064C289.306 148.099 289.703 147.986 290.023 147.745C290.023 147.745 289.637 148.589 290.88 148.712Z" fill="black"/>
<path opacity="0.1" d="M290.968 148.671C291.199 148.733 291.815 148.8 292.185 147.868L293.906 148.712C294.012 148.813 294.096 148.934 294.154 149.069C294.211 149.203 294.241 149.348 294.24 149.494L294.61 151.481C294.61 151.481 293.352 151.054 292.961 152.227L293.069 153.344L293.141 153.565C293.172 153.66 293.18 153.76 293.165 153.858C293.15 153.957 293.112 154.05 293.054 154.131C293.029 154.159 293.013 154.193 293.007 154.229C293 154.265 293.004 154.303 293.018 154.337C293.043 154.418 293.05 154.504 293.036 154.589C293.023 154.673 292.989 154.753 292.939 154.822C292.89 154.891 292.824 154.947 292.748 154.986C292.673 155.025 292.589 155.046 292.504 155.047C292.041 155.052 291.58 155.089 291.122 155.155C290.752 155.263 289.632 154.944 289.262 155.155C288.892 155.366 288.111 154.996 288.111 154.996L288.322 154.09C288.322 154.09 288.178 153.647 288.358 153.488C288.538 153.328 288.43 151.944 288.271 151.553C288.271 151.553 287.634 150.951 287.243 151.038L287.757 148.748C287.868 148.535 288.032 148.354 288.234 148.223C288.436 148.092 288.668 148.016 288.908 148.002C289.306 148.038 289.703 147.924 290.023 147.683C290.023 147.683 289.606 148.445 290.701 148.609L290.968 148.671Z" fill="black"/>
<path d="M290.968 148.707C291.199 148.769 291.816 148.836 292.186 147.904L293.907 148.748C294.012 148.849 294.097 148.97 294.154 149.105C294.212 149.239 294.241 149.384 294.241 149.53L294.61 151.517C294.61 151.517 293.352 151.09 292.961 152.263L293.069 153.38C293.15 153.655 293.13 153.951 293.013 154.213C293.002 154.237 292.997 154.262 292.997 154.288C292.997 154.314 293.002 154.339 293.013 154.363C293.038 154.444 293.045 154.53 293.031 154.614C293.018 154.699 292.985 154.778 292.935 154.847C292.885 154.916 292.819 154.973 292.744 155.012C292.668 155.051 292.584 155.072 292.499 155.073C292.036 155.078 291.575 155.114 291.117 155.181C290.747 155.289 289.627 154.97 289.257 155.181C288.887 155.392 288.107 155.021 288.107 155.021L288.317 154.116C288.317 154.116 288.173 153.673 288.353 153.514C288.533 153.354 288.425 151.97 288.266 151.579C288.266 151.579 287.629 150.976 287.238 151.064L287.752 148.774C287.863 148.56 288.027 148.379 288.229 148.249C288.431 148.118 288.663 148.042 288.903 148.028C289.301 148.064 289.698 147.95 290.018 147.709C290.018 147.709 289.602 148.47 290.696 148.635L290.968 148.707Z" fill="#F55F44"/>
<path opacity="0.1" d="M291.621 145.645L290.115 146.587C290.153 146.757 290.183 146.929 290.203 147.101C290.374 147.17 290.557 147.205 290.742 147.204C291.11 147.179 291.456 147.022 291.718 146.762C291.65 146.394 291.617 146.02 291.621 145.645Z" fill="black"/>
<path d="M290.711 147.091C291.514 147.091 292.165 146.439 292.165 145.635C292.165 144.83 291.514 144.178 290.711 144.178C289.908 144.178 289.257 144.83 289.257 145.635C289.257 146.439 289.908 147.091 290.711 147.091Z" fill="#FDB797"/>
<path d="M292.853 144.518C293.205 144.518 293.49 144.232 293.49 143.88C293.49 143.528 293.205 143.242 292.853 143.242C292.502 143.242 292.216 143.528 292.216 143.88C292.216 144.232 292.502 144.518 292.853 144.518Z" fill="#72351C"/>
<path d="M292.977 144.554C292.815 144.555 292.66 144.494 292.542 144.384C292.424 144.274 292.351 144.123 292.34 143.962C292.34 143.962 292.34 143.993 292.34 144.009C292.34 144.178 292.407 144.34 292.526 144.46C292.646 144.58 292.808 144.647 292.977 144.647C293.146 144.647 293.308 144.58 293.427 144.46C293.547 144.34 293.614 144.178 293.614 144.009C293.614 144.009 293.614 143.978 293.614 143.962C293.602 144.123 293.53 144.274 293.411 144.384C293.293 144.494 293.138 144.555 292.977 144.554Z" fill="#72351C"/>
<path d="M292.612 145.161C292.454 145.131 292.313 145.042 292.218 144.913C292.123 144.783 292.08 144.622 292.098 144.461V144.503C292.068 144.669 292.104 144.841 292.2 144.981C292.296 145.12 292.443 145.216 292.609 145.246C292.776 145.277 292.947 145.24 293.086 145.144C293.226 145.048 293.321 144.901 293.352 144.734V144.688C293.313 144.847 293.214 144.985 293.076 145.073C292.939 145.161 292.772 145.193 292.612 145.161Z" fill="#72351C"/>
<path d="M292.119 146.705C291.961 146.675 291.82 146.586 291.725 146.456C291.629 146.327 291.587 146.165 291.605 146.005V146.047C291.574 146.213 291.611 146.385 291.707 146.524C291.803 146.664 291.95 146.759 292.116 146.79C292.282 146.821 292.454 146.784 292.593 146.688C292.732 146.592 292.828 146.445 292.859 146.278V146.232C292.819 146.391 292.721 146.528 292.583 146.617C292.445 146.705 292.279 146.736 292.119 146.705Z" fill="#72351C"/>
<path d="M292.977 144.214C292.815 144.215 292.658 144.153 292.54 144.042C292.422 143.931 292.35 143.78 292.34 143.618C292.34 143.618 292.34 143.648 292.34 143.664C292.34 143.833 292.407 143.995 292.526 144.115C292.646 144.235 292.808 144.302 292.977 144.302C293.146 144.302 293.308 144.235 293.427 144.115C293.547 143.995 293.614 143.833 293.614 143.664C293.614 143.664 293.614 143.633 293.614 143.618C293.603 143.78 293.532 143.931 293.413 144.042C293.295 144.153 293.139 144.215 292.977 144.214Z" fill="#72351C"/>
<path d="M292.088 143.87C292.089 143.707 292.152 143.552 292.263 143.434C292.375 143.316 292.527 143.246 292.689 143.237H292.643C292.474 143.237 292.312 143.304 292.192 143.424C292.073 143.543 292.006 143.706 292.006 143.875C292.006 144.044 292.073 144.206 292.192 144.326C292.312 144.446 292.474 144.513 292.643 144.513H292.689C292.525 144.504 292.372 144.432 292.26 144.312C292.148 144.192 292.086 144.034 292.088 143.87Z" fill="#72351C"/>
<path opacity="0.1" d="M292.73 149.891C292.797 150.206 292.797 150.532 292.73 150.848C292.73 150.848 292.643 151.681 292.781 151.826" fill="black"/>
<path opacity="0.1" d="M288.425 150.086C288.492 150.402 288.492 150.728 288.425 151.043C288.425 151.043 288.338 151.877 288.476 152.021" fill="black"/>
<path opacity="0.1" d="M288.389 153.508C288.527 153.558 288.677 153.558 288.815 153.508C288.983 153.457 289.162 153.457 289.329 153.508" fill="black"/>
<path opacity="0.1" d="M288.605 152.253C289.105 152.277 289.605 152.198 290.074 152.021C290.074 152.021 291.882 152.464 292.396 152.145" fill="black"/>
<path d="M288.06 159.9H287.634C287.444 159.9 287.29 160.054 287.29 160.245C287.29 160.435 287.444 160.589 287.634 160.589H288.06C288.25 160.589 288.404 160.435 288.404 160.245C288.404 160.054 288.25 159.9 288.06 159.9Z" fill="#FDB797"/>
<path d="M287.295 160.085L287.891 160.059L288.404 160.142H288.225L287.295 160.085Z" fill="#F0E4E4"/>
<path d="M291.312 157.198H291.908L292.422 157.25H292.242L291.312 157.198Z" fill="#F0E4E4"/>
<path d="M291.312 157.322H291.908L292.422 157.373H292.242L291.312 157.322Z" fill="#F0E4E4"/>
<path d="M291.312 157.45H291.908L292.422 157.502H292.242L291.312 157.45Z" fill="#F0E4E4"/>
<path d="M291.312 157.574H291.908L292.422 157.625H292.242L291.312 157.574Z" fill="#F0E4E4"/>
<path d="M287.295 160.564H287.891L288.404 160.626H288.225L287.295 160.564Z" fill="#F0E4E4"/>
<path d="M287.295 160.502H287.891L288.404 160.564H288.225L287.295 160.502Z" fill="#F0E4E4"/>
<path d="M287.295 160.44H287.891L288.404 160.502H288.225L287.295 160.44Z" fill="#F0E4E4"/>
<path d="M287.295 160.378H287.891L288.404 160.44H288.225L287.295 160.378Z" fill="#F0E4E4"/>
<path d="M287.295 159.992L287.891 159.967L288.404 160.049H288.225L287.295 159.992Z" fill="#F0E4E4"/>
<path d="M287.295 159.884L287.891 159.859L288.404 159.941H288.225L287.295 159.884Z" fill="#F0E4E4"/>
<path opacity="0.1" d="M290.958 144.703C290.901 145.247 290.971 145.797 291.163 146.309C291.258 146.557 291.301 146.823 291.288 147.089C291.274 147.355 291.206 147.615 291.086 147.853C291.165 147.871 291.247 147.87 291.326 147.85C291.404 147.831 291.477 147.793 291.538 147.74C291.666 147.628 291.777 147.498 291.867 147.354C291.962 147.236 292.031 147.099 292.067 146.952C292.083 146.721 292.048 146.489 291.965 146.273C291.865 145.879 291.793 145.478 291.749 145.074C291.718 144.827 291.749 144.117 291.471 144.045C291.194 143.973 291.009 144.497 290.958 144.703Z" fill="black"/>
<path d="M290.994 144.688C290.937 145.232 291.007 145.782 291.199 146.293C291.294 146.542 291.337 146.808 291.323 147.074C291.31 147.339 291.242 147.6 291.122 147.837C291.201 147.855 291.283 147.855 291.362 147.835C291.44 147.815 291.513 147.777 291.574 147.724C291.702 147.612 291.812 147.482 291.903 147.338C291.998 147.221 292.067 147.084 292.103 146.937C292.119 146.706 292.084 146.474 292 146.257C291.901 145.863 291.829 145.463 291.785 145.058C291.754 144.811 291.785 144.101 291.507 144.029C291.23 143.957 291.045 144.477 290.994 144.688Z" fill="#72351C"/>
<path opacity="0.1" d="M290.367 145.069C290.49 145.197 290.516 145.388 290.619 145.532C290.71 145.63 290.822 145.707 290.946 145.757C291.07 145.806 291.204 145.828 291.338 145.82C291.411 145.816 291.484 145.832 291.548 145.866C291.662 145.938 291.667 146.103 291.739 146.216C291.777 146.258 291.824 146.291 291.875 146.313C291.927 146.336 291.983 146.347 292.039 146.347C292.095 146.347 292.151 146.336 292.203 146.313C292.255 146.291 292.301 146.258 292.34 146.216C292.488 146.039 292.57 145.815 292.571 145.583C292.596 145.328 292.596 145.072 292.571 144.817C292.564 144.525 292.448 144.246 292.247 144.034C292.079 143.909 291.883 143.825 291.677 143.787C291.395 143.688 291.092 143.665 290.798 143.72C290.656 143.768 290.521 143.836 290.398 143.921C290.223 144.034 290.052 144.149 289.884 144.266C289.694 144.4 289.334 144.667 289.684 144.811C289.904 144.914 290.182 144.868 290.367 145.069Z" fill="black"/>
<path d="M290.403 145.048C290.526 145.177 290.552 145.367 290.654 145.511C290.746 145.609 290.858 145.686 290.982 145.736C291.106 145.786 291.24 145.807 291.374 145.799C291.447 145.796 291.52 145.812 291.584 145.846C291.697 145.918 291.703 146.083 291.774 146.196C291.813 146.237 291.859 146.27 291.911 146.292C291.963 146.315 292.019 146.327 292.075 146.327C292.131 146.327 292.187 146.315 292.239 146.292C292.291 146.27 292.337 146.237 292.375 146.196C292.524 146.018 292.606 145.794 292.607 145.563C292.631 145.308 292.631 145.051 292.607 144.796C292.6 144.504 292.484 144.225 292.283 144.014C292.114 143.889 291.919 143.804 291.713 143.767C291.431 143.667 291.128 143.644 290.834 143.7C290.692 143.747 290.557 143.815 290.434 143.901C290.259 144.014 290.088 144.129 289.92 144.245C289.73 144.379 289.37 144.647 289.719 144.791C289.94 144.894 290.233 144.853 290.403 145.048Z" fill="#72351C"/>
<path d="M291.348 157.198H291.944L292.458 157.25H292.288L291.348 157.198Z" fill="#F0E4E4"/>
<path d="M291.348 157.322H291.944L292.458 157.373H292.288L291.348 157.322Z" fill="#F0E4E4"/>
<path d="M291.348 157.45H291.944L292.458 157.502H292.288L291.348 157.45Z" fill="#F0E4E4"/>
<path d="M291.348 157.574H291.944L292.458 157.625H292.288L291.348 157.574Z" fill="#F0E4E4"/>
<path d="M291.091 164.403H291.687L292.201 164.454H292.021L291.091 164.403Z" fill="#F0E4E4"/>
<path d="M291.091 164.531H291.687L292.201 164.583H292.021L291.091 164.531Z" fill="#F0E4E4"/>
<path d="M291.091 164.655H291.687L292.201 164.706H292.021L291.091 164.655Z" fill="#F0E4E4"/>
<path d="M291.091 164.778H291.687L292.201 164.83H292.021L291.091 164.778Z" fill="#F0E4E4"/>
</g>
<defs>
<linearGradient id="paint0_linear" x1="230.588" y1="313.995" x2="230.588" y2="195.768" gradientUnits="userSpaceOnUse">
<stop stop-color="#808080" stop-opacity="0.25"/>
<stop offset="0.54" stop-color="#808080" stop-opacity="0.12"/>
<stop offset="1" stop-color="#808080" stop-opacity="0.1"/>
</linearGradient>
<linearGradient id="paint1_linear" x1="163750" y1="126194" x2="163750" y2="0" gradientUnits="userSpaceOnUse">
<stop stop-color="#808080" stop-opacity="0.25"/>
<stop offset="0.54" stop-color="#808080" stop-opacity="0.12"/>
<stop offset="1" stop-color="#808080" stop-opacity="0.1"/>
</linearGradient>
<linearGradient id="paint2_linear" x1="100392" y1="147453" x2="100392" y2="63509.3" gradientUnits="userSpaceOnUse">
<stop stop-color="#808080" stop-opacity="0.25"/>
<stop offset="0.54" stop-color="#808080" stop-opacity="0.12"/>
<stop offset="1" stop-color="#808080" stop-opacity="0.1"/>
</linearGradient>
<linearGradient id="paint3_linear" x1="7448.8" y1="13710.3" x2="7448.8" y2="12138.2" gradientUnits="userSpaceOnUse">
<stop stop-color="#808080" stop-opacity="0.25"/>
<stop offset="0.54" stop-color="#808080" stop-opacity="0.12"/>
<stop offset="1" stop-color="#808080" stop-opacity="0.1"/>
</linearGradient>
<clipPath id="clip0">
<rect width="489" height="314" fill="white"/>
</clipPath>
</defs>
</svg>
