<svg width="580" height="447" viewBox="0 0 580 447" fill="none" xmlns="http://www.w3.org/2000/svg">
<g clip-path="url(#clip0)">
<path d="M502.998 364.592C501.599 353.626 505.981 342.337 503.376 331.601C501.372 323.308 495.437 316.383 493.486 308.075C490.62 295.762 497.176 283.117 505.542 273.662C511.297 267.146 518.518 261.232 527.127 260.048C532.442 259.292 537.905 260.46 542.813 262.628C547.803 264.866 552.278 268.109 555.96 272.154C559.641 276.199 562.45 280.959 564.21 286.139C565.344 289.504 565.998 293.025 567.393 296.288C569.794 301.911 574.199 306.447 576.94 311.918C578.767 315.625 579.799 319.673 579.97 323.803C580.142 327.932 579.448 332.052 577.934 335.897C574.762 343.816 568.104 350.442 567.121 358.916C566.406 365.023 568.698 371.713 565.722 377.095C563.477 381.156 558.853 383.206 554.475 384.741C544.301 388.281 530.063 394.029 519.856 388.557C510.929 383.773 504.294 374.715 502.998 364.592Z" fill="#E6E6E6"/>
<path d="M531.58 369.192C531.58 369.192 542.745 364.686 544.153 362.152C545.561 359.617 547.531 344.692 547.531 344.692" stroke="#D0CDE1" stroke-width="3" stroke-miterlimit="10"/>
<path d="M531.436 445.239L531.776 336.373" stroke="#D0CDE1" stroke-width="3" stroke-miterlimit="10"/>
<path d="M447.231 328.718C445.609 315.997 450.691 302.903 447.67 290.448C445.346 280.829 438.46 272.797 436.198 263.16C432.876 248.877 440.477 234.208 450.186 223.242C456.86 215.684 465.237 208.823 475.224 207.45C481.39 206.573 487.727 207.928 493.419 210.442C499.208 213.038 504.399 216.799 508.67 221.491C512.941 226.183 516.199 231.705 518.241 237.713C519.557 241.617 520.316 245.699 521.934 249.486C524.718 256.009 529.827 261.273 533.007 267.616C535.126 271.916 536.324 276.612 536.523 281.402C536.721 286.192 535.917 290.97 534.161 295.431C530.482 304.616 522.758 312.302 521.618 322.132C520.788 329.217 523.447 336.977 519.996 343.215C517.391 347.926 512.027 350.307 506.949 352.085C495.148 356.191 478.632 362.858 466.791 356.511C456.427 350.966 448.731 340.46 447.231 328.718Z" fill="#5875CD"/>
<path d="M480.215 445.239V293.902" stroke="#333333" stroke-width="3" stroke-miterlimit="10"/>
<path d="M480.381 337.759C480.381 337.759 497.774 330.74 499.967 326.792C502.16 322.844 505.228 299.595 505.228 299.595" stroke="#333333" stroke-width="3" stroke-miterlimit="10"/>
<path d="M407.556 0.0382562L192.934 0.56281C184.115 0.584364 176.983 7.75277 177.005 16.5739L178.014 429.78C178.036 438.601 185.202 445.734 194.021 445.713L408.643 445.188C417.462 445.166 424.594 437.998 424.572 429.177L423.563 15.9713C423.541 7.15017 416.375 0.0167021 407.556 0.0382562Z" fill="#112760"/>
<path d="M415.841 420.147C415.848 422.577 414.891 424.911 413.179 426.635C411.467 428.36 409.141 429.334 406.711 429.343L196.036 429.854C193.606 429.858 191.274 428.896 189.553 427.18C187.832 425.465 186.863 423.136 186.858 420.706L186.713 358.787L185.908 24.9248C185.9 22.4945 186.857 20.1607 188.569 18.4361C190.281 16.7116 192.608 15.7375 195.037 15.728L239.1 15.6245C239.805 20.2374 242.135 24.4462 245.67 27.4913C249.205 30.5364 253.712 32.2173 258.377 32.2304L341.629 32.0305C346.306 32.0108 350.822 30.3154 354.357 27.2517C357.892 24.188 360.213 19.9588 360.899 15.3307L405.65 15.2201C408.08 15.2169 410.411 16.1787 412.132 17.8941C413.853 19.6095 414.822 21.9382 414.828 24.3683L415.688 358.787L415.841 420.147Z" fill="white"/>
<path d="M415.84 424.357C415.869 426.817 414.921 429.189 413.203 430.95C411.485 432.711 409.138 433.718 406.679 433.749L195.261 434.27C192.802 434.252 190.45 433.258 188.724 431.507C186.997 429.755 186.036 427.39 186.052 424.93L185.908 361.707H415.689L415.84 424.357Z" fill="#E6E6E6"/>
<path d="M324.401 16.1426L272.017 16.9291C271.312 16.9397 270.749 17.5203 270.759 18.2259L270.772 19.1075C270.783 19.8131 271.363 20.3765 272.069 20.3659L324.452 19.5794C325.158 19.5688 325.721 18.9882 325.71 18.2826L325.697 17.401C325.687 16.6954 325.106 16.132 324.401 16.1426Z" fill="white"/>
<path d="M337.396 19.3792C338.536 19.362 339.446 18.4241 339.429 17.2842C339.412 16.1443 338.474 15.234 337.334 15.2512C336.195 15.2683 335.285 16.2062 335.302 17.3461C335.319 18.4861 336.257 19.3963 337.396 19.3792Z" fill="white"/>
<path d="M235.372 72.8092H205.39C201.686 72.8092 198.683 75.8126 198.683 79.5175V109.507C198.683 113.212 201.686 116.216 205.39 116.216H235.372C239.076 116.216 242.079 113.212 242.079 109.507V79.5175C242.079 75.8126 239.076 72.8092 235.372 72.8092Z" fill="#E6E6E6"/>
<path d="M288.938 72.8092H258.956C255.252 72.8092 252.25 75.8126 252.25 79.5175V109.507C252.25 113.212 255.252 116.216 258.956 116.216H288.938C292.642 116.216 295.645 113.212 295.645 109.507V79.5175C295.645 75.8126 292.642 72.8092 288.938 72.8092Z" fill="#E6E6E6"/>
<path d="M342.505 72.8092H312.523C308.819 72.8092 305.816 75.8126 305.816 79.5175V109.507C305.816 113.212 308.819 116.216 312.523 116.216H342.505C346.209 116.216 349.212 113.212 349.212 109.507V79.5175C349.212 75.8126 346.209 72.8092 342.505 72.8092Z" fill="#E6E6E6"/>
<path d="M396.071 72.8092H366.089C362.385 72.8092 359.383 75.8126 359.383 79.5175V109.507C359.383 113.212 362.385 116.216 366.089 116.216H396.071C399.775 116.216 402.778 113.212 402.778 109.507V79.5175C402.778 75.8126 399.775 72.8092 396.071 72.8092Z" fill="#E6E6E6"/>
<path d="M235.357 137.876H205.39C201.686 137.876 198.683 140.879 198.683 144.584V174.559C198.683 178.263 201.686 181.267 205.39 181.267H235.357C239.061 181.267 242.063 178.263 242.063 174.559V144.584C242.063 140.879 239.061 137.876 235.357 137.876Z" fill="#E1B61E"/>
<path d="M288.903 137.876H258.936C255.232 137.876 252.23 140.879 252.23 144.584V174.559C252.23 178.263 255.232 181.267 258.936 181.267H288.903C292.607 181.267 295.61 178.263 295.61 174.559V144.584C295.61 140.879 292.607 137.876 288.903 137.876Z" fill="#E6E6E6"/>
<path d="M342.451 137.876H312.484C308.78 137.876 305.777 140.879 305.777 144.584V174.559C305.777 178.263 308.78 181.267 312.484 181.267H342.451C346.155 181.267 349.157 178.263 349.157 174.559V144.584C349.157 140.879 346.155 137.876 342.451 137.876Z" fill="#E6E6E6"/>
<path d="M395.997 137.876H366.03C362.326 137.876 359.324 140.879 359.324 144.584V174.559C359.324 178.263 362.326 181.267 366.03 181.267H395.997C399.701 181.267 402.704 178.263 402.704 174.559V144.584C402.704 140.879 399.701 137.876 395.997 137.876Z" fill="#E6E6E6"/>
<path d="M235.372 203.029H205.39C201.686 203.029 198.683 206.032 198.683 209.737V239.727C198.683 243.432 201.686 246.435 205.39 246.435H235.372C239.076 246.435 242.079 243.432 242.079 239.727V209.737C242.079 206.032 239.076 203.029 235.372 203.029Z" fill="#E6E6E6"/>
<path d="M288.938 203.029H258.956C255.252 203.029 252.25 206.032 252.25 209.737V239.727C252.25 243.432 255.252 246.435 258.956 246.435H288.938C292.642 246.435 295.645 243.432 295.645 239.727V209.737C295.645 206.032 292.642 203.029 288.938 203.029Z" fill="#E6E6E6"/>
<path d="M342.505 203.029H312.523C308.819 203.029 305.816 206.032 305.816 209.737V239.727C305.816 243.432 308.819 246.435 312.523 246.435H342.505C346.209 246.435 349.212 243.432 349.212 239.727V209.737C349.212 206.032 346.209 203.029 342.505 203.029Z" fill="#E6E6E6"/>
<path d="M396.071 203.029H366.089C362.385 203.029 359.383 206.032 359.383 209.737V239.727C359.383 243.432 362.385 246.435 366.089 246.435H396.071C399.775 246.435 402.778 243.432 402.778 239.727V209.737C402.778 206.032 399.775 203.029 396.071 203.029Z" fill="#E6E6E6"/>
<path d="M235.372 268.139H205.39C201.686 268.139 198.683 271.142 198.683 274.847V304.837C198.683 308.542 201.686 311.545 205.39 311.545H235.372C239.076 311.545 242.079 308.542 242.079 304.837V274.847C242.079 271.142 239.076 268.139 235.372 268.139Z" fill="#E6E6E6"/>
<path d="M288.938 268.139H258.956C255.252 268.139 252.25 271.142 252.25 274.847V304.837C252.25 308.542 255.252 311.545 258.956 311.545H288.938C292.642 311.545 295.645 308.542 295.645 304.837V274.847C295.645 271.142 292.642 268.139 288.938 268.139Z" fill="#E6E6E6"/>
<path d="M342.505 268.139H312.523C308.819 268.139 305.816 271.142 305.816 274.847V304.837C305.816 308.542 308.819 311.545 312.523 311.545H342.505C346.209 311.545 349.212 308.542 349.212 304.837V274.847C349.212 271.142 346.209 268.139 342.505 268.139Z" fill="#E6E6E6"/>
<path d="M396.071 268.139H366.089C362.385 268.139 359.383 271.142 359.383 274.847V304.837C359.383 308.542 362.385 311.545 366.089 311.545H396.071C399.775 311.545 402.778 308.542 402.778 304.837V274.847C402.778 271.142 399.775 268.139 396.071 268.139Z" fill="#E6E6E6"/>
<path d="M233.812 375.795H202.154C198.45 375.795 195.448 378.798 195.448 382.503V414.169C195.448 417.874 198.45 420.877 202.154 420.877H233.812C237.516 420.877 240.519 417.874 240.519 414.169V382.503C240.519 378.798 237.516 375.795 233.812 375.795Z" fill="#E1B61E"/>
<path d="M289.446 375.795H257.788C254.084 375.795 251.082 378.798 251.082 382.503V414.169C251.082 417.874 254.084 420.877 257.788 420.877H289.446C293.15 420.877 296.153 417.874 296.153 414.169V382.503C296.153 378.798 293.15 375.795 289.446 375.795Z" fill="#E1B61E"/>
<path d="M345.081 375.795H313.423C309.719 375.795 306.717 378.798 306.717 382.503V414.169C306.717 417.874 309.719 420.877 313.423 420.877H345.081C348.785 420.877 351.787 417.874 351.787 414.169V382.503C351.787 378.798 348.785 375.795 345.081 375.795Z" fill="#E1B61E"/>
<path d="M400.715 375.795H369.057C365.353 375.795 362.351 378.798 362.351 382.503V414.169C362.351 417.874 365.353 420.877 369.057 420.877H400.715C404.419 420.877 407.421 417.874 407.421 414.169V382.503C407.421 378.798 404.419 375.795 400.715 375.795Z" fill="#E1B61E"/>
<path d="M188.097 152.165V162.046L176.327 179.296L188.097 186.959C188.097 186.959 193.328 166.799 196.148 164.427C196.148 164.427 200.578 161.265 202.988 156.918C205.399 152.57 204.194 137.547 192.52 150.986V152.569L188.097 152.165Z" fill="#FDA57D"/>
<path d="M96.4076 169.986L101.07 160.662C101.206 160.388 101.412 160.154 101.668 159.986C101.924 159.817 102.22 159.72 102.525 159.704L120.224 158.8C120.512 158.785 120.799 158.842 121.059 158.966C121.319 159.09 121.543 159.277 121.712 159.511C121.881 159.744 121.989 160.016 122.026 160.302C122.063 160.588 122.027 160.878 121.923 161.147L117.357 172.954C117.222 173.304 116.977 173.6 116.659 173.798C116.341 173.995 115.967 174.084 115.594 174.051L97.8051 172.467C97.5256 172.443 97.2563 172.351 97.0205 172.199C96.7847 172.047 96.5894 171.84 96.4518 171.595C96.3141 171.351 96.2381 171.076 96.2304 170.796C96.2227 170.515 96.2835 170.237 96.4076 169.986Z" fill="#FDA57D"/>
<path d="M97.7169 165.985L94.7104 174.801L125.583 173.692L113.724 166.575L97.7169 165.985Z" fill="#EDEEF9"/>
<path d="M85.3753 262.339C86.6152 268.44 85.8856 274.776 83.2918 280.435C78.9485 289.527 78.9485 299.03 84.4779 310.084L86.0613 367.408C86.0613 367.408 88.0356 394.294 86.0613 399.827C84.087 405.361 86.8367 431.856 86.8367 431.856H108.972V414.062L116.479 361.482V334.591L129.941 362.663L114.555 427.503L134.71 435.808L160.003 363.063C160.003 363.063 155.618 305.739 139.81 285.976L136.835 264.425L85.3753 262.339Z" fill="#3356B3"/>
<path d="M86.4524 445.204V430.578H108.979C108.979 430.578 110.562 436.51 120.838 437.695C131.114 438.881 116.094 446.001 116.094 446.001L86.4524 445.204Z" fill="#3F3D56"/>
<path d="M111.425 438.654L115.347 424.548L134.851 430.745C134.851 430.745 136.982 436.733 146.566 440.632C153.092 443.287 145.982 446.34 145.982 446.34L143.417 447.003L111.425 438.654Z" fill="#3F3D56"/>
<path opacity="0.1" d="M136.838 265.609L85.3684 263.525C86.0059 266.595 86.1379 269.749 85.7593 272.861C88.1117 278.401 93.1634 276.886 93.1634 276.886L138.197 275.501L136.838 265.609Z" fill="black"/>
<path d="M95.7419 171.518L93.6903 172.91C87.4827 177.115 82.6332 183.038 79.7338 189.954C76.8344 196.87 76.0105 204.48 77.3627 211.857C77.3627 211.857 88.8246 234.299 85.2669 256.742C81.7092 279.184 93.1711 275.721 93.1711 275.721L138.428 274.327L141.787 206.263C141.787 206.263 169.057 210.143 181.314 200.653L191.193 185.554L176.173 175.186L171.047 182.52C171.047 182.52 154.952 179.122 146.11 175.53C141.987 173.848 137.599 172.908 133.148 172.754L95.7419 171.518Z" fill="#E1B61E"/>
<path opacity="0.1" d="M96.138 281.031C96.138 281.031 93.3685 294.868 109.183 317.798L96.138 281.031Z" fill="black"/>
<path opacity="0.1" d="M141.967 206.311C141.967 206.311 160.937 199.986 169.237 199.986C177.538 199.986 176.154 203.57 176.154 203.57C176.154 203.57 162.936 209.472 141.967 206.311Z" fill="black"/>
<path opacity="0.1" d="M120.473 159.604L112.921 160.508C112.684 160.508 112.466 160.835 112.338 161.303C113.999 164.298 116.075 166.08 118.332 166.08C119.137 166.068 119.925 165.848 120.62 165.441L121.195 161.946C121.389 160.784 121.005 159.54 120.473 159.604Z" fill="black"/>
<path d="M115.203 165.286C127.935 165.286 138.255 154.962 138.255 142.228C138.255 129.493 127.935 119.17 115.203 119.17C102.472 119.17 92.1511 129.493 92.1511 142.228C92.1511 154.962 102.472 165.286 115.203 165.286Z" fill="#FDA57D"/>
<path opacity="0.1" d="M134.813 129.172L133.634 130.237C133.139 130.689 132.767 131.259 132.551 131.894C132.336 132.528 132.283 133.207 132.399 133.867C132.514 134.527 132.795 135.147 133.213 135.671C133.632 136.194 134.176 136.603 134.794 136.861C134.794 136.861 124.467 147.191 123.031 149.108C121.595 151.025 123.268 156.072 123.268 156.072C123.268 156.072 127.832 164.478 103.819 162.555C103.819 162.555 87.9719 159.195 89.6518 137.817C89.8185 135.675 86.2927 130.122 96.8572 127.25C97.1737 124.249 98.4155 121.421 100.411 119.158C102.406 116.894 105.055 115.308 107.992 114.618C112.076 113.602 116.294 113.232 120.493 113.522C124.404 113.865 128.045 115.663 130.697 118.56C133.348 121.458 134.817 125.244 134.813 129.172Z" fill="black"/>
<path d="M135.313 127.916C135.313 127.916 137.762 128.672 137.877 136.707L134.396 136.47C134.396 136.47 126.344 158.014 127.191 155.206C130.313 144.875 124.069 146.799 122.626 148.723C121.184 150.646 122.863 155.687 122.863 155.687C122.863 155.687 127.428 164.093 103.414 162.169C103.414 162.169 87.5676 158.809 89.2475 137.432C89.4142 135.29 85.8884 129.737 96.4529 126.865C96.7668 123.865 98.005 121.038 99.9961 118.774C101.987 116.509 104.633 114.92 107.567 114.226C111.651 113.21 115.869 112.84 120.067 113.13C128.197 113.815 135.313 119.785 135.313 127.916Z" fill="#72351C"/>
<path d="M23.788 445.245C23.788 445.245 13.7217 411.065 25.7041 385.905C30.7815 375.388 32.3123 363.506 30.0666 352.045C28.9564 346.611 27.3507 341.29 25.2698 336.149" stroke="#D0CDE1" stroke-width="2" stroke-miterlimit="10"/>
<path d="M32.6916 320.228C32.6916 324.419 25.11 336.564 25.11 336.564C25.11 336.564 17.5283 324.426 17.5283 320.228C17.5283 318.216 18.3274 316.286 19.7499 314.863C21.1723 313.441 23.1015 312.641 25.1132 312.641C27.1248 312.641 29.054 313.441 30.4765 314.863C31.8989 316.286 32.698 318.216 32.698 320.228H32.6916Z" fill="#E6E6E6"/>
<path d="M45.8559 343.432C43.582 346.946 30.616 353.016 30.616 353.016C30.616 353.016 30.8523 338.698 33.1261 335.178C34.2196 333.49 35.9389 332.305 37.9057 331.884C39.8726 331.464 41.9259 331.842 43.614 332.936C45.302 334.029 46.4866 335.749 46.907 337.716C47.3275 339.684 46.9494 341.738 45.8559 343.426V343.432Z" fill="#E6E6E6"/>
<path d="M44.6743 383.088C40.9377 385.005 26.675 383.669 26.675 383.669C26.675 383.669 34.1034 371.428 37.8463 369.537C39.6419 368.631 41.7237 368.476 43.6337 369.106C45.5436 369.736 47.1253 371.098 48.0307 372.895C48.9362 374.691 49.0912 376.773 48.4618 378.683C47.8323 380.594 46.4699 382.176 44.6743 383.082V383.088Z" fill="#E6E6E6"/>
<path d="M37.5012 413C34.1351 415.492 19.8596 416.617 19.8596 416.617C19.8596 416.617 25.1163 403.296 28.4824 400.804C29.283 400.212 30.1924 399.783 31.1587 399.542C32.125 399.301 33.1293 399.253 34.1141 399.401C35.099 399.548 36.0451 399.888 36.8986 400.401C37.7521 400.915 38.4962 401.591 39.0884 402.392C39.6806 403.193 40.1093 404.102 40.35 405.069C40.5907 406.035 40.6387 407.04 40.4913 408.025C40.3439 409.01 40.004 409.956 39.491 410.81C38.9779 411.664 38.3018 412.408 37.5012 413Z" fill="#E6E6E6"/>
<path d="M14.0538 353.84C17.0558 356.759 31.0566 359.781 31.0566 359.781C31.0566 359.781 27.6267 345.873 24.6247 342.96C23.1698 341.638 21.2589 340.934 19.2949 340.995C17.3308 341.055 15.4669 341.876 14.0962 343.285C12.7255 344.693 11.955 346.578 11.9471 348.544C11.9392 350.509 12.6945 352.401 14.0538 353.821V353.84Z" fill="#E6E6E6"/>
<path d="M6.11435 388.927C9.85088 390.844 24.1136 389.509 24.1136 389.509C24.1136 389.509 16.6852 377.268 12.9423 375.377C12.0532 374.928 11.0845 374.659 10.0915 374.585C9.09847 374.511 8.10064 374.634 7.15492 374.945C6.20921 375.257 5.33413 375.752 4.57968 376.402C3.82523 377.052 3.20618 377.845 2.75785 378.734C2.30953 379.623 2.0407 380.592 1.96674 381.585C1.89279 382.579 2.01516 383.577 2.32684 384.523C2.63852 385.469 3.1334 386.344 3.78327 387.099C4.43313 387.853 5.22524 388.473 6.11435 388.921V388.927Z" fill="#E6E6E6"/>
<path d="M3.0742 424.085C6.44027 426.577 20.7157 427.701 20.7157 427.701C20.7157 427.701 15.459 414.38 12.093 411.889C11.2923 411.296 10.3829 410.868 9.41664 410.627C8.45034 410.386 7.44611 410.338 6.46126 410.485C5.4764 410.633 4.53019 410.973 3.67671 411.486C2.82322 411.999 2.07916 412.676 1.48698 413.476C0.894804 414.277 0.466087 415.187 0.225366 416.153C-0.0153538 417.12 -0.0633791 418.124 0.0840085 419.109C0.231396 420.095 0.571334 421.041 1.08439 421.895C1.59745 422.748 2.27358 423.493 3.0742 424.085Z" fill="#E6E6E6"/>
<path d="M579.729 445.52H0.0395508V446.559H579.729V445.52Z" fill="#2F2E41"/>
</g>
<defs>
<clipPath id="clip0">
<rect width="580" height="447" fill="white"/>
</clipPath>
</defs>
</svg>
