<svg width="70" height="70" viewBox="0 0 70 70" fill="none" xmlns="http://www.w3.org/2000/svg">
<g clip-path="url(#clip0)">
<path d="M8.06105 25.6412C8.26079 25.8409 8.52301 25.9414 8.78523 25.9414C9.04746 25.9414 9.30968 25.8415 9.50995 25.6412C9.90996 25.2412 9.90996 24.5923 9.50995 24.1923L7.0223 21.7047L9.50995 19.2175C9.90996 18.817 9.90996 18.1686 9.50995 17.7686C9.10994 17.3686 8.46106 17.3686 8.06105 17.7686L4.84921 20.9805C4.65695 21.1727 4.54907 21.4334 4.54907 21.7047C4.54907 21.9765 4.65695 22.2371 4.84921 22.4294L8.06105 25.6412Z" fill="#F48803"/>
<path d="M18.2275 21.7046L15.7399 24.1922C15.3399 24.5922 15.3399 25.2411 15.7404 25.6411C15.9402 25.8409 16.2024 25.9413 16.4646 25.9413C16.7268 25.9413 16.989 25.8409 17.1888 25.6411L20.4012 22.4288C20.8012 22.0288 20.8012 21.3799 20.4012 20.9804L17.1888 17.768C16.7888 17.368 16.1404 17.368 15.7404 17.768C15.3399 18.1686 15.3399 18.8169 15.7404 19.2169L18.2275 21.7046Z" fill="#F48803"/>
<path d="M11.0978 25.8702C11.2206 25.9183 11.3477 25.9413 11.4722 25.9413C11.8813 25.9413 12.2674 25.6945 12.426 25.2913L14.9494 18.8671C15.1567 18.3405 14.8971 17.7461 14.3705 17.5389C13.8445 17.3322 13.2495 17.5912 13.0429 18.1178L10.5189 24.542C10.3122 25.0686 10.5712 25.6636 11.0978 25.8702Z" fill="#F48803"/>
<path d="M6.15348 31.9515H13.0551C13.6207 31.9515 14.0795 31.4928 14.0795 30.9267C14.0795 30.3611 13.6207 29.9023 13.0551 29.9023H6.15348C5.58737 29.9023 5.12915 30.3611 5.12915 30.9267C5.12915 31.4928 5.58737 31.9515 6.15348 31.9515Z" fill="#F48803"/>
<path d="M28.9509 29.9023H16.8171C16.2515 29.9023 15.7927 30.3611 15.7927 30.9267C15.7927 31.4928 16.2515 31.9515 16.8171 31.9515H28.9509C29.517 31.9515 29.9757 31.4928 29.9757 30.9267C29.9757 30.3611 29.517 29.9023 28.9509 29.9023Z" fill="#F48803"/>
<path d="M6.15348 36.2727H9.09347C9.65904 36.2727 10.1178 35.8139 10.1178 35.2478C10.1178 34.6823 9.65904 34.2235 9.09347 34.2235H6.15348C5.58737 34.2235 5.12915 34.6823 5.12915 35.2478C5.12915 35.8139 5.58737 36.2727 6.15348 36.2727Z" fill="#F48803"/>
<path d="M25.2028 34.2235C24.6367 34.2235 24.1785 34.6823 24.1785 35.2478C24.1785 35.8139 24.6367 36.2727 25.2028 36.2727H26.993C27.5591 36.2727 28.0178 35.8139 28.0178 35.2478C28.0178 34.6823 27.5591 34.2235 26.993 34.2235H25.2028Z" fill="#F48803"/>
<path d="M22.5063 35.2478C22.5063 34.6823 22.0475 34.2235 21.482 34.2235H12.6881C12.122 34.2235 11.6638 34.6823 11.6638 35.2478C11.6638 35.8139 12.122 36.2727 12.6881 36.2727H21.482C22.0475 36.2727 22.5063 35.8139 22.5063 35.2478Z" fill="#F48803"/>
<path d="M29.2173 35.2478C29.2173 35.8139 29.676 36.2727 30.2416 36.2727H33.595C34.1611 36.2727 34.6198 35.8139 34.6198 35.2478C34.6198 34.6823 34.1611 34.2235 33.595 34.2235H30.2416C29.676 34.2235 29.2173 34.6823 29.2173 35.2478Z" fill="#F48803"/>
<path d="M23.6379 22.5265H27.175C27.7411 22.5265 28.1998 22.0677 28.1998 21.5016C28.1998 20.9361 27.7411 20.4773 27.175 20.4773H23.6379C23.0718 20.4773 22.613 20.9361 22.613 21.5016C22.613 22.0677 23.0718 22.5265 23.6379 22.5265Z" fill="#F48803"/>
<path d="M31.1367 22.5265H52.7186C53.2847 22.5265 53.7429 22.0677 53.7429 21.5016C53.7429 20.9361 53.2847 20.4773 52.7186 20.4773H31.1367C30.5706 20.4773 30.1118 20.9361 30.1118 21.5016C30.1118 22.0677 30.5706 22.5265 31.1367 22.5265Z" fill="#F48803"/>
<path d="M49.4405 24.9847H40.6979C40.1323 24.9847 39.6736 25.4435 39.6736 26.0096C39.6736 26.5752 40.1323 27.0339 40.6979 27.0339H49.4405C50.006 27.0339 50.4648 26.5752 50.4648 26.0096C50.4648 25.4435 50.006 24.9847 49.4405 24.9847Z" fill="#F48803"/>
<path d="M37.4199 24.9847H34.4147C33.8486 24.9847 33.3904 25.4435 33.3904 26.0096C33.3904 26.5752 33.8486 27.0339 34.4147 27.0339H37.4199C37.986 27.0339 38.4442 26.5752 38.4442 26.0096C38.4442 25.4435 37.986 24.9847 37.4199 24.9847Z" fill="#F48803"/>
<path d="M23.6379 27.0339H30.9999C31.5655 27.0339 32.0242 26.5752 32.0242 26.0096C32.0242 25.4435 31.5655 24.9847 30.9999 24.9847H23.6379C23.0718 24.9847 22.613 25.4435 22.613 26.0096C22.613 26.5752 23.0718 27.0339 23.6379 27.0339Z" fill="#F48803"/>
<path d="M21.4948 38.5082H14.5937C14.0276 38.5082 13.5688 38.9669 13.5688 39.5325C13.5688 40.0981 14.0276 40.5568 14.5937 40.5568H21.4948C22.0604 40.5568 22.5192 40.0981 22.5192 39.5325C22.5192 38.9669 22.0604 38.5082 21.4948 38.5082Z" fill="#F48803"/>
<path d="M11.4556 38.5082H6.15348C5.58737 38.5082 5.12915 38.9669 5.12915 39.5325C5.12915 40.0981 5.58737 40.5568 6.15348 40.5568H11.4556C12.0217 40.5568 12.4799 40.0981 12.4799 39.5325C12.4799 38.9669 12.0217 38.5082 11.4556 38.5082Z" fill="#F48803"/>
<path d="M34.0051 38.5082H24.9897C24.4236 38.5082 23.9653 38.9669 23.9653 39.5325C23.9653 40.0981 24.4236 40.5568 24.9897 40.5568H34.0051C34.5707 40.5568 35.0294 40.0981 35.0294 39.5325C35.0294 38.9669 34.5707 38.5082 34.0051 38.5082Z" fill="#F48803"/>
<path d="M46.1971 33.2456H41.2672C40.7017 33.2456 40.2429 33.7044 40.2429 34.2699C40.2429 34.836 40.7017 35.2948 41.2672 35.2948H46.1971C46.7633 35.2948 47.2215 34.836 47.2215 34.2699C47.2215 33.7044 46.7633 33.2456 46.1971 33.2456Z" fill="#F48803"/>
<path d="M54.7519 35.2948H61.7112C62.2773 35.2948 62.7361 34.836 62.7361 34.2699C62.7361 33.7044 62.2773 33.2456 61.7112 33.2456H54.7519C54.1858 33.2456 53.7275 33.7044 53.7275 34.2699C53.7275 34.836 54.1863 35.2948 54.7519 35.2948Z" fill="#F48803"/>
<path d="M51.2719 33.2456H49.6772C49.1111 33.2456 48.6523 33.7044 48.6523 34.2699C48.6523 34.836 49.1111 35.2948 49.6772 35.2948H51.2719C51.838 35.2948 52.2963 34.836 52.2963 34.2699C52.2963 33.7044 51.838 33.2456 51.2719 33.2456Z" fill="#F48803"/>
<path d="M41.2672 46.4588H46.1971C46.7633 46.4588 47.2215 46.0006 47.2215 45.4345C47.2215 44.8689 46.7633 44.4102 46.1971 44.4102H41.2672C40.7017 44.4102 40.2429 44.8689 40.2429 45.4345C40.2429 46.0006 40.7017 46.4588 41.2672 46.4588Z" fill="#F48803"/>
<path d="M54.7519 46.4588H61.7112C62.2773 46.4588 62.7361 46.0006 62.7361 45.4345C62.7361 44.8689 62.2773 44.4102 61.7112 44.4102H54.7519C54.1858 44.4102 53.7275 44.8689 53.7275 45.4345C53.7275 46.0006 54.1863 46.4588 54.7519 46.4588Z" fill="#F48803"/>
<path d="M49.6772 46.4588H51.2719C51.838 46.4588 52.2967 46.0006 52.2967 45.4345C52.2967 44.8689 51.838 44.4102 51.2719 44.4102H49.6772C49.1111 44.4102 48.6528 44.8689 48.6528 45.4345C48.6528 46.0006 49.1111 46.4588 49.6772 46.4588Z" fill="#F48803"/>
<path d="M46.1971 55.5747H41.2672C40.7017 55.5747 40.2429 56.0335 40.2429 56.599C40.2429 57.1646 40.7017 57.6234 41.2672 57.6234H46.1971C46.7633 57.6234 47.2215 57.1646 47.2215 56.599C47.2215 56.0335 46.7633 55.5747 46.1971 55.5747Z" fill="#F48803"/>
<path d="M61.7112 55.5747H54.7519C54.1858 55.5747 53.7275 56.0335 53.7275 56.599C53.7275 57.1646 54.1858 57.6234 54.7519 57.6234H61.7112C62.2773 57.6234 62.7361 57.1646 62.7361 56.599C62.7361 56.0335 62.2773 55.5747 61.7112 55.5747Z" fill="#F48803"/>
<path d="M51.2719 55.5747H49.6772C49.1111 55.5747 48.6523 56.0335 48.6523 56.599C48.6523 57.1646 49.1111 57.6234 49.6772 57.6234H51.2719C51.838 57.6234 52.2963 57.1646 52.2963 56.599C52.2963 56.0335 51.838 55.5747 51.2719 55.5747Z" fill="#F48803"/>
<path d="M65.4917 0.136597H4.50907C2.02302 0.136597 0 2.15908 0 4.64566V54.2155C0 56.7015 2.02302 58.724 4.50907 58.724H8.36444C8.93001 58.724 9.38877 58.2658 9.38877 57.6997C9.38877 57.1341 8.93001 56.6754 8.36444 56.6754H4.50907C3.15255 56.6754 2.04919 55.572 2.04919 54.2155V50.3291H39.373V52.0947H38.5607C37.4493 52.0947 36.5457 52.9984 36.5457 54.1098V56.6754H14.5932C14.0276 56.6754 13.5689 57.1341 13.5689 57.6997C13.5689 58.2658 14.0276 58.724 14.5932 58.724H24.4434V62.3984H21.3501C19.2865 62.3984 17.6079 64.0774 17.6079 66.1405V68.3537C17.6079 69.2952 18.3738 70.0611 19.3153 70.0611H50.607C51.5485 70.0611 52.3144 69.2952 52.3144 68.3537V66.1405C52.3144 64.0774 50.6358 62.3984 48.5722 62.3984H45.4789V61.1033H64.4183C65.5291 61.1033 66.4328 60.1996 66.4328 59.0883V58.606C68.4296 58.1424 69.9223 56.3507 69.9223 54.2155L69.9997 4.64513C70.0003 2.15908 67.9778 0.136597 65.4917 0.136597ZM38.5949 47.8901V42.9794H64.3841V47.8901H38.5949ZM41.4217 40.9302V38.7748H61.5568V40.9302H41.4217ZM61.5568 49.9387V52.0947H41.4217V49.9387H61.5568ZM26.492 58.724H36.5457V59.0888C36.5457 60.1996 37.4493 61.1033 38.5607 61.1033H43.4303V62.3984H26.492V58.724ZM48.5727 64.4475C49.5063 64.4475 50.2657 65.207 50.2657 66.1405V68.0124H19.6566V66.1405C19.6566 65.207 20.4166 64.4475 21.3501 64.4475H48.5727ZM64.3841 59.0541H38.5949V54.1439H64.3841V59.0541ZM67.8736 54.2155C67.8736 55.2078 67.2819 56.0628 66.4333 56.4511V54.1092C66.4333 52.9984 65.5291 52.0947 64.4183 52.0947H63.606V50.3291H67.8736V54.2155ZM67.8736 48.2805H66.3996C66.4205 48.1646 66.4333 42.9452 66.4333 42.9452C66.4333 41.8339 65.5291 40.9302 64.4183 40.9302H63.606V38.7748H64.4183C65.5291 38.7748 66.4333 37.8706 66.4333 36.7598V31.7807C66.4333 30.6699 65.5291 29.7657 64.4183 29.7657H58.6317C58.0656 29.7657 57.6074 30.2245 57.6074 30.7906C57.6074 31.3561 58.0656 31.8149 58.6317 31.8149H64.3841V36.7256H38.5949V31.8149H52.2572C52.8233 31.8149 53.2815 31.3561 53.2815 30.7906C53.2815 30.2245 52.8233 29.7657 52.2572 29.7657H38.5607C37.4493 29.7657 36.5457 30.6699 36.5457 31.7807V36.7598C36.5457 37.8706 37.4493 38.7748 38.5607 38.7748H39.373V40.9302H38.5607C37.4493 40.9302 36.5457 41.8344 36.5457 42.9452C36.5457 42.9452 36.5585 48.1646 36.5794 48.2805H2.04919V14.0724H67.8736V48.2805ZM67.8736 12.0232H2.12449V4.64513C2.12449 3.28915 3.22786 2.18578 4.58437 2.18578H65.4138C66.7703 2.18578 67.8736 3.28915 67.8736 4.64566V12.0232Z" fill="#F48803"/>
<path d="M7.55529 4.06885C5.89757 4.06885 4.54907 5.41735 4.54907 7.07507C4.54907 8.73279 5.89757 10.0818 7.55529 10.0818C9.21301 10.0818 10.562 8.73279 10.562 7.07507C10.562 5.41735 9.21301 4.06885 7.55529 4.06885ZM7.55529 8.03264C7.02764 8.03264 6.59772 7.60325 6.59772 7.07507C6.59772 6.54742 7.02764 6.1175 7.55529 6.1175C8.08348 6.1175 8.51286 6.54742 8.51286 7.07507C8.51286 7.60325 8.08348 8.03264 7.55529 8.03264Z" fill="#F48803"/>
<path d="M15.2101 4.06885C13.5524 4.06885 12.2034 5.41735 12.2034 7.07507C12.2034 8.73279 13.5524 10.0818 15.2101 10.0818C16.8679 10.0818 18.2164 8.73279 18.2164 7.07507C18.2164 5.41735 16.8673 4.06885 15.2101 4.06885ZM15.2101 8.03264C14.6819 8.03264 14.2526 7.60325 14.2526 7.07507C14.2526 6.54742 14.6819 6.1175 15.2101 6.1175C15.7378 6.1175 16.1677 6.54742 16.1677 7.07507C16.1677 7.60325 15.7378 8.03264 15.2101 8.03264Z" fill="#F48803"/>
<path d="M22.8641 4.06885C21.2064 4.06885 19.8579 5.41735 19.8579 7.07507C19.8579 8.73279 21.2064 10.0818 22.8641 10.0818C24.5219 10.0818 25.8709 8.73279 25.8709 7.07507C25.8709 5.41735 24.5219 4.06885 22.8641 4.06885ZM22.8641 8.03264C22.3365 8.03264 21.9066 7.60325 21.9066 7.07507C21.9066 6.54742 22.3365 6.1175 22.8641 6.1175C23.3923 6.1175 23.8217 6.54742 23.8217 7.07507C23.8217 7.60325 23.3923 8.03264 22.8641 8.03264Z" fill="#F48803"/>
</g>
<defs>
<clipPath id="clip0">
<rect width="70" height="70" fill="white"/>
</clipPath>
</defs>
</svg>
