<svg width="139" height="36" viewBox="0 0 139 36" fill="none" xmlns="http://www.w3.org/2000/svg">
<path d="M32.7133 20.5839C32.7382 23.279 32.1115 25.7636 30.833 28.0376C29.5546 30.3116 27.6941 32.1097 25.2517 33.4319C22.8578 34.8017 20.0245 35.5018 16.7519 35.5322C13.383 35.5634 10.4405 34.8687 7.92455 33.4481C5.40857 32.0274 3.46542 30.0961 2.09511 27.6541C0.725255 25.2603 0.027169 22.6436 0.000856146 19.8041C-0.0214429 17.3977 0.391855 15.252 1.24075 13.3671C2.08965 11.4821 3.25404 9.88295 4.73394 8.56969L0.691263 8.60715L0.616339 0.521797L56.9251 0L57 8.08536L27.9793 8.35428C29.3871 9.64078 30.5098 11.339 31.3476 13.449C32.234 15.6067 32.6892 17.985 32.7133 20.5839ZM6.84292 18.0079C6.86744 20.6549 7.82644 22.8601 9.7199 24.6234C11.6138 26.4348 13.9564 27.3276 16.7478 27.3017C18.5285 27.2852 20.1608 26.8369 21.6447 25.9568C23.1291 25.1248 24.2737 23.9832 25.0785 22.5318C25.9318 21.128 26.3505 19.5599 26.3344 17.8273C26.3134 15.5653 25.7174 13.5734 24.5463 11.8515C23.3756 10.1778 21.8249 9.03702 19.894 8.42921L13.1081 8.49209C11.1415 9.23228 9.58833 10.4259 8.44845 12.0729C7.35669 13.7195 6.82151 15.6978 6.84292 18.0079Z" fill="url(#paint0_linear)"/>
<circle cx="46.6466" cy="20.5776" r="9.21623" fill="#F2CF52"/>
<circle cx="46.6081" cy="17.6081" r="4.60811" fill="white"/>
<path d="M84.312 21.608C84.312 22.296 84.168 22.912 83.88 23.456C83.608 24 83.232 24.464 82.752 24.848C82.288 25.216 81.736 25.504 81.096 25.712C80.456 25.904 79.776 26 79.056 26H70.92V8.96H79.704C80.296 8.96 80.832 9.088 81.312 9.344C81.792 9.6 82.2 9.936 82.536 10.352C82.872 10.752 83.128 11.216 83.304 11.744C83.496 12.256 83.592 12.776 83.592 13.304C83.592 14.136 83.376 14.92 82.944 15.656C82.528 16.376 81.928 16.912 81.144 17.264C82.12 17.552 82.888 18.08 83.448 18.848C84.024 19.6 84.312 20.52 84.312 21.608ZM81.552 21.104C81.552 20.752 81.488 20.416 81.36 20.096C81.248 19.776 81.088 19.496 80.88 19.256C80.688 19.016 80.448 18.824 80.16 18.68C79.872 18.536 79.56 18.464 79.224 18.464H73.608V23.672H79.056C79.408 23.672 79.736 23.608 80.04 23.48C80.344 23.336 80.608 23.152 80.832 22.928C81.056 22.688 81.232 22.416 81.36 22.112C81.488 21.792 81.552 21.456 81.552 21.104ZM73.608 11.288V16.304H78.552C78.888 16.304 79.192 16.24 79.464 16.112C79.752 15.984 80 15.816 80.208 15.608C80.432 15.384 80.6 15.12 80.712 14.816C80.84 14.512 80.904 14.176 80.904 13.808C80.904 13.072 80.696 12.472 80.28 12.008C79.864 11.528 79.336 11.288 78.696 11.288H73.608ZM92.4673 26.24C91.4913 26.24 90.6033 26.072 89.8033 25.736C89.0033 25.384 88.3153 24.912 87.7393 24.32C87.1793 23.728 86.7393 23.04 86.4193 22.256C86.1153 21.472 85.9633 20.64 85.9633 19.76C85.9633 18.88 86.1153 18.048 86.4193 17.264C86.7393 16.464 87.1793 15.768 87.7393 15.176C88.3153 14.568 89.0033 14.096 89.8033 13.76C90.6033 13.408 91.4993 13.232 92.4913 13.232C93.4673 13.232 94.3473 13.408 95.1313 13.76C95.9313 14.112 96.6113 14.584 97.1713 15.176C97.7313 15.752 98.1553 16.432 98.4433 17.216C98.7473 17.984 98.8993 18.792 98.8993 19.64C98.8993 19.832 98.8913 20.016 98.8753 20.192C98.8593 20.352 98.8433 20.488 98.8273 20.6H88.7713C88.8193 21.16 88.9473 21.664 89.1553 22.112C89.3793 22.56 89.6593 22.952 89.9953 23.288C90.3473 23.608 90.7393 23.856 91.1713 24.032C91.6193 24.208 92.0833 24.296 92.5633 24.296C92.9153 24.296 93.2593 24.256 93.5953 24.176C93.9473 24.08 94.2673 23.952 94.5553 23.792C94.8433 23.616 95.0993 23.408 95.3233 23.168C95.5473 22.928 95.7233 22.664 95.8513 22.376L98.1073 23.024C97.6753 23.968 96.9553 24.744 95.9473 25.352C94.9553 25.944 93.7953 26.24 92.4673 26.24ZM96.2833 18.776C96.2353 18.248 96.0993 17.76 95.8753 17.312C95.6673 16.864 95.3953 16.488 95.0593 16.184C94.7233 15.864 94.3313 15.616 93.8833 15.44C93.4353 15.264 92.9633 15.176 92.4673 15.176C91.9713 15.176 91.4993 15.264 91.0513 15.44C90.6193 15.616 90.2353 15.864 89.8993 16.184C89.5633 16.488 89.2913 16.864 89.0833 17.312C88.8753 17.76 88.7473 18.248 88.6993 18.776H96.2833Z" fill="#F2CF52"/>
<path d="M101.389 26V8.96H107.437C108.813 8.96 110.013 9.184 111.037 9.632C112.077 10.08 112.941 10.688 113.629 11.456C114.333 12.224 114.861 13.128 115.213 14.168C115.565 15.192 115.741 16.288 115.741 17.456C115.741 18.752 115.541 19.928 115.141 20.984C114.757 22.024 114.205 22.92 113.485 23.672C112.765 24.408 111.893 24.984 110.869 25.4C109.845 25.8 108.701 26 107.437 26H101.389ZM113.005 17.456C113.005 16.56 112.877 15.736 112.621 14.984C112.381 14.232 112.021 13.592 111.541 13.064C111.061 12.52 110.477 12.096 109.789 11.792C109.101 11.488 108.317 11.336 107.437 11.336H104.077V23.624H107.437C108.333 23.624 109.125 23.472 109.813 23.168C110.517 22.848 111.101 22.416 111.565 21.872C112.045 21.312 112.405 20.656 112.645 19.904C112.885 19.152 113.005 18.336 113.005 17.456ZM122.096 26.24C120.784 26.24 119.792 25.816 119.12 24.968C118.448 24.104 118.112 22.824 118.112 21.128V13.448H120.752V20.6C120.752 22.856 121.552 23.984 123.152 23.984C123.904 23.984 124.616 23.752 125.288 23.288C125.96 22.824 126.48 22.152 126.848 21.272V13.448H129.488V22.88C129.488 23.184 129.536 23.4 129.632 23.528C129.744 23.656 129.936 23.728 130.208 23.744V26C129.936 26.048 129.712 26.08 129.536 26.096C129.36 26.112 129.192 26.12 129.032 26.12C128.552 26.12 128.144 25.992 127.808 25.736C127.472 25.464 127.296 25.12 127.28 24.704L127.232 23.456C126.672 24.368 125.944 25.064 125.048 25.544C124.152 26.008 123.168 26.24 122.096 26.24ZM132.881 8.48H135.521V22.376C135.521 22.84 135.641 23.208 135.881 23.48C136.121 23.736 136.457 23.864 136.889 23.864C137.065 23.864 137.265 23.832 137.489 23.768C137.729 23.704 137.953 23.632 138.161 23.552L138.545 25.616C138.161 25.792 137.705 25.928 137.177 26.024C136.649 26.136 136.177 26.192 135.761 26.192C134.849 26.192 134.137 25.944 133.625 25.448C133.129 24.952 132.881 24.248 132.881 23.336V8.48Z" fill="#0E1763"/>
<defs>
<linearGradient id="paint0_linear" x1="28.5" y1="0" x2="28.5" y2="35.5332" gradientUnits="userSpaceOnUse">
<stop stop-color="#2E4DAB"/>
<stop offset="0.21875" stop-color="#232A50"/>
</linearGradient>
</defs>
</svg>
